<svg xmlns="http://www.w3.org/2000/svg" xmlns:xlink="http://www.w3.org/1999/xlink" width="1600" zoomAndPan="magnify" viewBox="0 0 1200 374.999991" height="500" preserveAspectRatio="xMidYMid meet" version="1.0"><defs><g/><clipPath id="a33f456ce3"><path d="M 82.359375 37.9375 L 1117.359375 37.9375 L 1117.359375 325.1875 L 82.359375 325.1875 Z M 82.359375 37.9375 " clip-rule="nonzero"/></clipPath><clipPath id="1a9993ba9d"><path d="M 614 90 L 671 90 L 671 270 L 614 270 Z M 614 90 " clip-rule="nonzero"/></clipPath><clipPath id="47aa34c13c"><path d="M 614.03125 269.496094 L 656.433594 87.621094 L 680.539062 93.242188 L 638.136719 275.113281 Z M 614.03125 269.496094 " clip-rule="nonzero"/></clipPath><clipPath id="bfb5e35140"><path d="M 614.03125 269.496094 L 656.433594 87.621094 L 680.539062 93.242188 L 638.136719 275.113281 Z M 614.03125 269.496094 " clip-rule="nonzero"/></clipPath><clipPath id="1b204cc71f"><path d="M 651 88 L 683 88 L 683 274 L 651 274 Z M 651 88 " clip-rule="nonzero"/></clipPath><clipPath id="ca97d3f205"><path d="M 651.777344 273.621094 L 668.507812 87.621094 L 693.15625 89.839844 L 676.425781 275.839844 Z M 651.777344 273.621094 " clip-rule="nonzero"/></clipPath><clipPath id="860b653a92"><path d="M 651.777344 273.621094 L 668.507812 87.621094 L 693.15625 89.839844 L 676.425781 275.839844 Z M 651.777344 273.621094 " clip-rule="nonzero"/></clipPath></defs><rect x="-120" width="1440" fill="#ffffff" y="-37.499999" height="449.999989" fill-opacity="1"/><rect x="-120" width="1440" fill="#ffffff" y="-37.499999" height="449.999989" fill-opacity="1"/><g clip-path="url(#a33f456ce3)"><path fill="#142846" d="M 82.359375 37.9375 L 1117.359375 37.9375 L 1117.359375 325.1875 L 82.359375 325.1875 Z M 82.359375 37.9375 " fill-opacity="1" fill-rule="nonzero"/></g><g fill="#ffffff" fill-opacity="1"><g transform="translate(165.832751, 213.437648)"><g><path d="M 88.859375 -41.875 C 88.859375 -33.238281 87.144531 -25.640625 83.71875 -19.078125 C 80.300781 -12.523438 75.40625 -7.507812 69.03125 -4.03125 C 62.664062 -0.5625 55.238281 1.171875 46.75 1.171875 C 33.707031 1.171875 23.476562 -2.664062 16.0625 -10.34375 C 8.65625 -18.019531 4.953125 -28.53125 4.953125 -41.875 C 4.953125 -55.195312 8.644531 -65.585938 16.03125 -73.046875 C 23.425781 -80.503906 33.707031 -84.234375 46.875 -84.234375 C 60.039062 -84.234375 70.328125 -80.460938 77.734375 -72.921875 C 85.148438 -65.378906 88.859375 -55.03125 88.859375 -41.875 Z M 71.109375 -41.875 C 71.109375 -50.832031 68.984375 -57.851562 64.734375 -62.9375 C 60.492188 -68.019531 54.539062 -70.5625 46.875 -70.5625 C 39.09375 -70.5625 33.078125 -68.039062 28.828125 -63 C 24.585938 -57.957031 22.46875 -50.914062 22.46875 -41.875 C 22.46875 -32.769531 24.640625 -25.59375 28.984375 -20.34375 C 33.328125 -15.101562 39.25 -12.484375 46.75 -12.484375 C 54.53125 -12.484375 60.535156 -15.035156 64.765625 -20.140625 C 68.992188 -25.242188 71.109375 -32.488281 71.109375 -41.875 Z M 71.109375 -41.875 "/></g></g></g><g fill="#ffffff" fill-opacity="1"><g transform="translate(259.748671, 213.437648)"><g><path d="M 65.15625 0 L 45.875 -31.515625 L 25.46875 -31.515625 L 25.46875 0 L 8.078125 0 L 8.078125 -83 L 49.578125 -83 C 59.484375 -83 67.128906 -80.867188 72.515625 -76.609375 C 77.898438 -72.347656 80.59375 -66.234375 80.59375 -58.265625 C 80.59375 -52.453125 78.941406 -47.429688 75.640625 -43.203125 C 72.335938 -38.984375 67.878906 -36.207031 62.265625 -34.875 L 84.71875 0 Z M 63.09375 -57.546875 C 63.09375 -65.523438 57.976562 -69.515625 47.75 -69.515625 L 25.46875 -69.515625 L 25.46875 -45 L 48.234375 -45 C 53.109375 -45 56.800781 -46.097656 59.3125 -48.296875 C 61.832031 -50.503906 63.09375 -53.585938 63.09375 -57.546875 Z M 63.09375 -57.546875 "/></g></g></g><g fill="#ffffff" fill-opacity="1"><g transform="translate(346.943678, 213.437648)"><g><path d="M 45.578125 -69.5625 L 45.578125 0 L 28.1875 0 L 28.1875 -69.5625 L 1.359375 -69.5625 L 1.359375 -83 L 72.46875 -83 L 72.46875 -69.5625 Z M 45.578125 -69.5625 "/></g></g></g><g fill="#ffffff" fill-opacity="1"><g transform="translate(411.735148, 213.437648)"><g><path d="M 66.796875 0 L 59.4375 -21.203125 L 27.765625 -21.203125 L 20.40625 0 L 3 0 L 33.3125 -83 L 53.828125 -83 L 84.015625 0 Z M 43.578125 -70.21875 L 43.21875 -68.921875 C 42.820312 -67.503906 42.347656 -65.890625 41.796875 -64.078125 C 41.253906 -62.273438 37.875 -52.34375 31.65625 -34.28125 L 55.546875 -34.28125 L 47.34375 -58.140625 L 44.8125 -66.15625 Z M 43.578125 -70.21875 "/></g></g></g><g fill="#ffffff" fill-opacity="1"><g transform="translate(498.930167, 213.437648)"><g><path d="M 47.515625 -12.421875 C 52.035156 -12.421875 56.414062 -13.078125 60.65625 -14.390625 C 64.90625 -15.710938 68.191406 -17.394531 70.515625 -19.4375 L 70.515625 -30.921875 L 50.234375 -30.921875 L 50.234375 -43.765625 L 86.4375 -43.765625 L 86.4375 -13.25 C 82.03125 -8.738281 76.300781 -5.207031 69.25 -2.65625 C 62.195312 -0.101562 54.796875 1.171875 47.046875 1.171875 C 33.523438 1.171875 23.128906 -2.566406 15.859375 -10.046875 C 8.585938 -17.523438 4.953125 -28.132812 4.953125 -41.875 C 4.953125 -55.539062 8.609375 -66.015625 15.921875 -73.296875 C 23.234375 -80.585938 33.75 -84.234375 47.46875 -84.234375 C 66.957031 -84.234375 79.359375 -77.03125 84.671875 -62.625 L 68.625 -57.78125 C 66.894531 -61.988281 64.179688 -65.171875 60.484375 -67.328125 C 56.796875 -69.484375 52.457031 -70.5625 47.46875 -70.5625 C 39.289062 -70.5625 33.078125 -68.085938 28.828125 -63.140625 C 24.585938 -58.191406 22.46875 -51.101562 22.46875 -41.875 C 22.46875 -32.488281 24.65625 -25.234375 29.03125 -20.109375 C 33.414062 -14.984375 39.578125 -12.421875 47.515625 -12.421875 Z M 47.515625 -12.421875 "/></g></g></g><g fill="#ffffff" fill-opacity="1"><g transform="translate(718.877739, 146.459474)"><g><path d="M 26.859375 -12.765625 C 26.859375 -10.117188 26.351562 -7.800781 25.34375 -5.8125 C 24.332031 -3.832031 22.878906 -2.304688 20.984375 -1.234375 C 19.085938 -0.171875 16.851562 0.359375 14.28125 0.359375 C 11.6875 0.359375 9.441406 -0.164062 7.546875 -1.21875 C 5.660156 -2.269531 4.222656 -3.789062 3.234375 -5.78125 C 2.242188 -7.78125 1.75 -10.109375 1.75 -12.765625 C 1.75 -16.804688 2.851562 -19.96875 5.0625 -22.25 C 7.28125 -24.53125 10.363281 -25.671875 14.3125 -25.671875 C 16.894531 -25.671875 19.128906 -25.15625 21.015625 -24.125 C 22.910156 -23.101562 24.359375 -21.617188 25.359375 -19.671875 C 26.359375 -17.722656 26.859375 -15.421875 26.859375 -12.765625 Z M 23.359375 -12.765625 C 23.359375 -15.910156 22.566406 -18.378906 20.984375 -20.171875 C 19.410156 -21.972656 17.1875 -22.875 14.3125 -22.875 C 11.414062 -22.875 9.175781 -21.988281 7.59375 -20.21875 C 6.019531 -18.445312 5.234375 -15.960938 5.234375 -12.765625 C 5.234375 -9.585938 6.03125 -7.066406 7.625 -5.203125 C 9.226562 -3.347656 11.445312 -2.421875 14.28125 -2.421875 C 17.207031 -2.421875 19.453125 -3.320312 21.015625 -5.125 C 22.578125 -6.925781 23.359375 -9.472656 23.359375 -12.765625 Z M 23.359375 -12.765625 "/></g></g></g><g fill="#ffffff" fill-opacity="1"><g transform="translate(747.500868, 146.459474)"><g><path d="M 5.703125 -16.109375 C 6.390625 -17.367188 7.222656 -18.296875 8.203125 -18.890625 C 9.179688 -19.484375 10.414062 -19.78125 11.90625 -19.78125 C 14.019531 -19.78125 15.578125 -19.253906 16.578125 -18.203125 C 17.578125 -17.160156 18.078125 -15.40625 18.078125 -12.9375 L 18.078125 0 L 14.828125 0 L 14.828125 -12.3125 C 14.828125 -13.675781 14.695312 -14.691406 14.4375 -15.359375 C 14.1875 -16.023438 13.773438 -16.507812 13.203125 -16.8125 C 12.628906 -17.125 11.832031 -17.28125 10.8125 -17.28125 C 9.289062 -17.28125 8.070312 -16.753906 7.15625 -15.703125 C 6.238281 -14.648438 5.78125 -13.234375 5.78125 -11.453125 L 5.78125 0 L 2.546875 0 L 2.546875 -26.640625 L 5.78125 -26.640625 L 5.78125 -19.71875 C 5.78125 -18.976562 5.757812 -18.21875 5.71875 -17.4375 C 5.675781 -16.664062 5.648438 -16.222656 5.640625 -16.109375 Z M 5.703125 -16.109375 "/></g></g></g><g fill="#ffffff" fill-opacity="1"><g transform="translate(767.966496, 146.459474)"><g><path d="M 2.46875 -23.546875 L 2.46875 -26.640625 L 5.703125 -26.640625 L 5.703125 -23.546875 Z M 2.46875 0 L 2.46875 -19.421875 L 5.703125 -19.421875 L 5.703125 0 Z M 2.46875 0 "/></g></g></g><g fill="#ffffff" fill-opacity="1"><g transform="translate(776.14197, 146.459474)"><g><path d="M 18.921875 -9.734375 C 18.921875 -6.328125 18.171875 -3.789062 16.671875 -2.125 C 15.171875 -0.46875 13 0.359375 10.15625 0.359375 C 7.3125 0.359375 5.164062 -0.503906 3.71875 -2.234375 C 2.269531 -3.960938 1.546875 -6.460938 1.546875 -9.734375 C 1.546875 -16.429688 4.453125 -19.78125 10.265625 -19.78125 C 13.234375 -19.78125 15.414062 -18.960938 16.8125 -17.328125 C 18.21875 -15.691406 18.921875 -13.160156 18.921875 -9.734375 Z M 15.53125 -9.734375 C 15.53125 -12.410156 15.128906 -14.351562 14.328125 -15.5625 C 13.535156 -16.78125 12.195312 -17.390625 10.3125 -17.390625 C 8.414062 -17.390625 7.046875 -16.769531 6.203125 -15.53125 C 5.359375 -14.289062 4.9375 -12.359375 4.9375 -9.734375 C 4.9375 -7.171875 5.351562 -5.242188 6.1875 -3.953125 C 7.019531 -2.671875 8.328125 -2.03125 10.109375 -2.03125 C 12.054688 -2.03125 13.445312 -2.648438 14.28125 -3.890625 C 15.113281 -5.140625 15.53125 -7.085938 15.53125 -9.734375 Z M 15.53125 -9.734375 "/></g></g></g><g fill="#ffffff" fill-opacity="1"><g transform="translate(796.607599, 146.459474)"><g/></g></g><g fill="#ffffff" fill-opacity="1"><g transform="translate(806.831432, 146.459474)"><g><path d="M 20.90625 0 L 14.34375 -10.5 L 6.453125 -10.5 L 6.453125 0 L 3.015625 0 L 3.015625 -25.296875 L 14.9375 -25.296875 C 17.78125 -25.296875 19.976562 -24.65625 21.53125 -23.375 C 23.082031 -22.101562 23.859375 -20.332031 23.859375 -18.0625 C 23.859375 -16.175781 23.3125 -14.59375 22.21875 -13.3125 C 21.125 -12.039062 19.613281 -11.234375 17.6875 -10.890625 L 24.859375 0 Z M 20.40625 -18.03125 C 20.40625 -19.5 19.90625 -20.617188 18.90625 -21.390625 C 17.90625 -22.160156 16.46875 -22.546875 14.59375 -22.546875 L 6.453125 -22.546875 L 6.453125 -13.21875 L 14.734375 -13.21875 C 16.546875 -13.21875 17.941406 -13.640625 18.921875 -14.484375 C 19.910156 -15.328125 20.40625 -16.507812 20.40625 -18.03125 Z M 20.40625 -18.03125 "/></g></g></g><g fill="#ffffff" fill-opacity="1"><g transform="translate(833.406201, 146.459474)"><g><path d="M 2.46875 -23.546875 L 2.46875 -26.640625 L 5.703125 -26.640625 L 5.703125 -23.546875 Z M 2.46875 0 L 2.46875 -19.421875 L 5.703125 -19.421875 L 5.703125 0 Z M 2.46875 0 "/></g></g></g><g fill="#ffffff" fill-opacity="1"><g transform="translate(841.581675, 146.459474)"><g><path d="M 11.015625 0 L 7.1875 0 L 0.125 -19.421875 L 3.578125 -19.421875 L 7.859375 -6.78125 C 8.003906 -6.300781 8.414062 -4.882812 9.09375 -2.53125 L 9.71875 -4.625 L 10.421875 -6.75 L 14.84375 -19.421875 L 18.265625 -19.421875 Z M 11.015625 0 "/></g></g></g><g fill="#ffffff" fill-opacity="1"><g transform="translate(859.980971, 146.459474)"><g><path d="M 4.953125 -9.03125 C 4.953125 -6.800781 5.410156 -5.082031 6.328125 -3.875 C 7.253906 -2.664062 8.609375 -2.0625 10.390625 -2.0625 C 11.785156 -2.0625 12.90625 -2.34375 13.75 -2.90625 C 14.59375 -3.46875 15.164062 -4.179688 15.46875 -5.046875 L 18.3125 -4.234375 C 17.144531 -1.171875 14.503906 0.359375 10.390625 0.359375 C 7.515625 0.359375 5.320312 -0.492188 3.8125 -2.203125 C 2.3125 -3.921875 1.5625 -6.46875 1.5625 -9.84375 C 1.5625 -13.050781 2.3125 -15.507812 3.8125 -17.21875 C 5.320312 -18.925781 7.472656 -19.78125 10.265625 -19.78125 C 15.972656 -19.78125 18.828125 -16.335938 18.828125 -9.453125 L 18.828125 -9.03125 Z M 15.484375 -11.5 C 15.304688 -13.550781 14.785156 -15.046875 13.921875 -15.984375 C 13.054688 -16.921875 11.816406 -17.390625 10.203125 -17.390625 C 8.640625 -17.390625 7.398438 -16.863281 6.484375 -15.8125 C 5.566406 -14.769531 5.070312 -13.332031 5 -11.5 Z M 15.484375 -11.5 "/></g></g></g><g fill="#ffffff" fill-opacity="1"><g transform="translate(880.4466, 146.459474)"><g><path d="M 2.546875 0 L 2.546875 -14.90625 C 2.546875 -16.269531 2.507812 -17.773438 2.4375 -19.421875 L 5.5 -19.421875 C 5.59375 -17.222656 5.640625 -15.898438 5.640625 -15.453125 L 5.71875 -15.453125 C 6.226562 -17.117188 6.816406 -18.253906 7.484375 -18.859375 C 8.160156 -19.472656 9.109375 -19.78125 10.328125 -19.78125 C 10.765625 -19.78125 11.203125 -19.722656 11.640625 -19.609375 L 11.640625 -16.640625 C 11.210938 -16.765625 10.640625 -16.828125 9.921875 -16.828125 C 8.578125 -16.828125 7.550781 -16.25 6.84375 -15.09375 C 6.132812 -13.9375 5.78125 -12.28125 5.78125 -10.125 L 5.78125 0 Z M 2.546875 0 "/></g></g></g><g fill="#ffffff" fill-opacity="1"><g transform="translate(718.877739, 191.279365)"><g><path d="M 12.9375 -22.5 L 12.9375 0 L 9.515625 0 L 9.515625 -22.5 L 0.828125 -22.5 L 0.828125 -25.296875 L 21.625 -25.296875 L 21.625 -22.5 Z M 12.9375 -22.5 "/></g></g></g><g fill="#ffffff" fill-opacity="1"><g transform="translate(737.276886, 191.279365)"><g><path d="M 4.953125 -9.03125 C 4.953125 -6.800781 5.410156 -5.082031 6.328125 -3.875 C 7.253906 -2.664062 8.609375 -2.0625 10.390625 -2.0625 C 11.785156 -2.0625 12.90625 -2.34375 13.75 -2.90625 C 14.59375 -3.46875 15.164062 -4.179688 15.46875 -5.046875 L 18.3125 -4.234375 C 17.144531 -1.171875 14.503906 0.359375 10.390625 0.359375 C 7.515625 0.359375 5.320312 -0.492188 3.8125 -2.203125 C 2.3125 -3.921875 1.5625 -6.46875 1.5625 -9.84375 C 1.5625 -13.050781 2.3125 -15.507812 3.8125 -17.21875 C 5.320312 -18.925781 7.472656 -19.78125 10.265625 -19.78125 C 15.972656 -19.78125 18.828125 -16.335938 18.828125 -9.453125 L 18.828125 -9.03125 Z M 15.484375 -11.5 C 15.304688 -13.550781 14.785156 -15.046875 13.921875 -15.984375 C 13.054688 -16.921875 11.816406 -17.390625 10.203125 -17.390625 C 8.640625 -17.390625 7.398438 -16.863281 6.484375 -15.8125 C 5.566406 -14.769531 5.070312 -13.332031 5 -11.5 Z M 15.484375 -11.5 "/></g></g></g><g fill="#ffffff" fill-opacity="1"><g transform="translate(757.742515, 191.279365)"><g><path d="M 4.9375 -9.796875 C 4.9375 -7.210938 5.34375 -5.296875 6.15625 -4.046875 C 6.976562 -2.804688 8.207031 -2.1875 9.84375 -2.1875 C 11 -2.1875 11.960938 -2.5 12.734375 -3.125 C 13.503906 -3.75 13.976562 -4.707031 14.15625 -6 L 17.421875 -5.78125 C 17.171875 -3.914062 16.375 -2.425781 15.03125 -1.3125 C 13.695312 -0.195312 12 0.359375 9.9375 0.359375 C 7.21875 0.359375 5.140625 -0.5 3.703125 -2.21875 C 2.273438 -3.9375 1.5625 -6.441406 1.5625 -9.734375 C 1.5625 -12.992188 2.28125 -15.484375 3.71875 -17.203125 C 5.15625 -18.921875 7.21875 -19.78125 9.90625 -19.78125 C 11.882812 -19.78125 13.53125 -19.265625 14.84375 -18.234375 C 16.15625 -17.210938 16.984375 -15.796875 17.328125 -13.984375 L 14 -13.734375 C 13.832031 -14.804688 13.40625 -15.660156 12.71875 -16.296875 C 12.039062 -16.929688 11.070312 -17.25 9.8125 -17.25 C 8.09375 -17.25 6.847656 -16.679688 6.078125 -15.546875 C 5.316406 -14.410156 4.9375 -12.492188 4.9375 -9.796875 Z M 4.9375 -9.796875 "/></g></g></g><g fill="#ffffff" fill-opacity="1"><g transform="translate(776.141811, 191.279365)"><g><path d="M 5.703125 -16.109375 C 6.390625 -17.367188 7.222656 -18.296875 8.203125 -18.890625 C 9.179688 -19.484375 10.414062 -19.78125 11.90625 -19.78125 C 14.019531 -19.78125 15.578125 -19.253906 16.578125 -18.203125 C 17.578125 -17.160156 18.078125 -15.40625 18.078125 -12.9375 L 18.078125 0 L 14.828125 0 L 14.828125 -12.3125 C 14.828125 -13.675781 14.695312 -14.691406 14.4375 -15.359375 C 14.1875 -16.023438 13.773438 -16.507812 13.203125 -16.8125 C 12.628906 -17.125 11.832031 -17.28125 10.8125 -17.28125 C 9.289062 -17.28125 8.070312 -16.753906 7.15625 -15.703125 C 6.238281 -14.648438 5.78125 -13.234375 5.78125 -11.453125 L 5.78125 0 L 2.546875 0 L 2.546875 -26.640625 L 5.78125 -26.640625 L 5.78125 -19.71875 C 5.78125 -18.976562 5.757812 -18.21875 5.71875 -17.4375 C 5.675781 -16.664062 5.648438 -16.222656 5.640625 -16.109375 Z M 5.703125 -16.109375 "/></g></g></g><g fill="#ffffff" fill-opacity="1"><g transform="translate(796.607439, 191.279365)"><g><path d="M 14.828125 0 L 14.828125 -12.3125 C 14.828125 -13.59375 14.695312 -14.585938 14.4375 -15.296875 C 14.1875 -16.003906 13.785156 -16.507812 13.234375 -16.8125 C 12.691406 -17.125 11.882812 -17.28125 10.8125 -17.28125 C 9.257812 -17.28125 8.03125 -16.75 7.125 -15.6875 C 6.226562 -14.625 5.78125 -13.144531 5.78125 -11.25 L 5.78125 0 L 2.546875 0 L 2.546875 -15.28125 C 2.546875 -17.539062 2.507812 -18.921875 2.4375 -19.421875 L 5.5 -19.421875 C 5.507812 -19.359375 5.519531 -19.195312 5.53125 -18.9375 C 5.539062 -18.675781 5.554688 -18.375 5.578125 -18.03125 C 5.597656 -17.6875 5.617188 -17.046875 5.640625 -16.109375 L 5.703125 -16.109375 C 6.441406 -17.441406 7.296875 -18.382812 8.265625 -18.9375 C 9.242188 -19.5 10.457031 -19.78125 11.90625 -19.78125 C 14.039062 -19.78125 15.601562 -19.25 16.59375 -18.1875 C 17.582031 -17.132812 18.078125 -15.382812 18.078125 -12.9375 L 18.078125 0 Z M 14.828125 0 "/></g></g></g><g fill="#ffffff" fill-opacity="1"><g transform="translate(817.073068, 191.279365)"><g><path d="M 18.921875 -9.734375 C 18.921875 -6.328125 18.171875 -3.789062 16.671875 -2.125 C 15.171875 -0.46875 13 0.359375 10.15625 0.359375 C 7.3125 0.359375 5.164062 -0.503906 3.71875 -2.234375 C 2.269531 -3.960938 1.546875 -6.460938 1.546875 -9.734375 C 1.546875 -16.429688 4.453125 -19.78125 10.265625 -19.78125 C 13.234375 -19.78125 15.414062 -18.960938 16.8125 -17.328125 C 18.21875 -15.691406 18.921875 -13.160156 18.921875 -9.734375 Z M 15.53125 -9.734375 C 15.53125 -12.410156 15.128906 -14.351562 14.328125 -15.5625 C 13.535156 -16.78125 12.195312 -17.390625 10.3125 -17.390625 C 8.414062 -17.390625 7.046875 -16.769531 6.203125 -15.53125 C 5.359375 -14.289062 4.9375 -12.359375 4.9375 -9.734375 C 4.9375 -7.171875 5.351562 -5.242188 6.1875 -3.953125 C 7.019531 -2.671875 8.328125 -2.03125 10.109375 -2.03125 C 12.054688 -2.03125 13.445312 -2.648438 14.28125 -3.890625 C 15.113281 -5.140625 15.53125 -7.085938 15.53125 -9.734375 Z M 15.53125 -9.734375 "/></g></g></g><g fill="#ffffff" fill-opacity="1"><g transform="translate(837.538696, 191.279365)"><g><path d="M 2.484375 0 L 2.484375 -26.640625 L 5.71875 -26.640625 L 5.71875 0 Z M 2.484375 0 "/></g></g></g><g fill="#ffffff" fill-opacity="1"><g transform="translate(845.71417, 191.279365)"><g><path d="M 18.921875 -9.734375 C 18.921875 -6.328125 18.171875 -3.789062 16.671875 -2.125 C 15.171875 -0.46875 13 0.359375 10.15625 0.359375 C 7.3125 0.359375 5.164062 -0.503906 3.71875 -2.234375 C 2.269531 -3.960938 1.546875 -6.460938 1.546875 -9.734375 C 1.546875 -16.429688 4.453125 -19.78125 10.265625 -19.78125 C 13.234375 -19.78125 15.414062 -18.960938 16.8125 -17.328125 C 18.21875 -15.691406 18.921875 -13.160156 18.921875 -9.734375 Z M 15.53125 -9.734375 C 15.53125 -12.410156 15.128906 -14.351562 14.328125 -15.5625 C 13.535156 -16.78125 12.195312 -17.390625 10.3125 -17.390625 C 8.414062 -17.390625 7.046875 -16.769531 6.203125 -15.53125 C 5.359375 -14.289062 4.9375 -12.359375 4.9375 -9.734375 C 4.9375 -7.171875 5.351562 -5.242188 6.1875 -3.953125 C 7.019531 -2.671875 8.328125 -2.03125 10.109375 -2.03125 C 12.054688 -2.03125 13.445312 -2.648438 14.28125 -3.890625 C 15.113281 -5.140625 15.53125 -7.085938 15.53125 -9.734375 Z M 15.53125 -9.734375 "/></g></g></g><g fill="#ffffff" fill-opacity="1"><g transform="translate(866.179799, 191.279365)"><g><path d="M 9.84375 7.625 C 7.726562 7.625 6.039062 7.207031 4.78125 6.375 C 3.519531 5.550781 2.710938 4.375 2.359375 2.84375 L 5.609375 2.375 C 5.816406 3.269531 6.289062 3.957031 7.03125 4.4375 C 7.769531 4.925781 8.738281 5.171875 9.9375 5.171875 C 13.15625 5.171875 14.765625 3.285156 14.765625 -0.484375 L 14.765625 -3.609375 L 14.734375 -3.609375 C 14.117188 -2.359375 13.28125 -1.421875 12.21875 -0.796875 C 11.15625 -0.171875 9.910156 0.140625 8.484375 0.140625 C 6.097656 0.140625 4.34375 -0.644531 3.21875 -2.21875 C 2.101562 -3.800781 1.546875 -6.285156 1.546875 -9.671875 C 1.546875 -13.109375 2.144531 -15.644531 3.34375 -17.28125 C 4.550781 -18.914062 6.382812 -19.734375 8.84375 -19.734375 C 10.21875 -19.734375 11.410156 -19.414062 12.421875 -18.78125 C 13.429688 -18.15625 14.210938 -17.265625 14.765625 -16.109375 L 14.8125 -16.109375 C 14.8125 -16.460938 14.832031 -17.082031 14.875 -17.96875 C 14.925781 -18.851562 14.972656 -19.335938 15.015625 -19.421875 L 18.09375 -19.421875 C 18.019531 -18.773438 17.984375 -17.4375 17.984375 -15.40625 L 17.984375 -0.5625 C 17.984375 4.894531 15.269531 7.625 9.84375 7.625 Z M 14.765625 -9.71875 C 14.765625 -11.289062 14.546875 -12.648438 14.109375 -13.796875 C 13.679688 -14.941406 13.078125 -15.816406 12.296875 -16.421875 C 11.515625 -17.023438 10.625 -17.328125 9.625 -17.328125 C 7.976562 -17.328125 6.773438 -16.726562 6.015625 -15.53125 C 5.265625 -14.332031 4.890625 -12.394531 4.890625 -9.71875 C 4.890625 -7.0625 5.238281 -5.148438 5.9375 -3.984375 C 6.644531 -2.828125 7.859375 -2.25 9.578125 -2.25 C 10.597656 -2.25 11.5 -2.546875 12.28125 -3.140625 C 13.070312 -3.742188 13.679688 -4.601562 14.109375 -5.71875 C 14.546875 -6.832031 14.765625 -8.164062 14.765625 -9.71875 Z M 14.765625 -9.71875 "/></g></g></g><g fill="#ffffff" fill-opacity="1"><g transform="translate(886.645427, 191.279365)"><g><path d="M 3.4375 7.625 C 2.550781 7.625 1.804688 7.5625 1.203125 7.4375 L 1.203125 5.015625 C 1.660156 5.078125 2.164062 5.109375 2.71875 5.109375 C 4.726562 5.109375 6.320312 3.632812 7.5 0.6875 L 7.796875 -0.09375 L 0.09375 -19.421875 L 3.546875 -19.421875 L 7.640625 -8.6875 C 7.691406 -8.519531 7.757812 -8.316406 7.84375 -8.078125 C 7.9375 -7.847656 8.207031 -7.066406 8.65625 -5.734375 C 9.113281 -4.410156 9.359375 -3.671875 9.390625 -3.515625 L 10.65625 -7.0625 L 14.90625 -19.421875 L 18.328125 -19.421875 L 10.859375 0 C 10.046875 2.070312 9.289062 3.613281 8.59375 4.625 C 7.90625 5.632812 7.140625 6.382812 6.296875 6.875 C 5.453125 7.375 4.5 7.625 3.4375 7.625 Z M 3.4375 7.625 "/></g></g></g><g fill="#ffffff" fill-opacity="1"><g transform="translate(718.877739, 236.08755)"><g><path d="M 20.96875 0 L 18.078125 -7.390625 L 6.546875 -7.390625 L 3.625 0 L 0.078125 0 L 10.40625 -25.296875 L 14.296875 -25.296875 L 24.46875 0 Z M 12.3125 -22.703125 L 12.140625 -22.203125 C 11.847656 -21.210938 11.40625 -19.941406 10.8125 -18.390625 L 7.578125 -10.078125 L 17.046875 -10.078125 L 13.796875 -18.421875 C 13.460938 -19.242188 13.128906 -20.175781 12.796875 -21.21875 Z M 12.3125 -22.703125 "/></g></g></g><g fill="#ffffff" fill-opacity="1"><g transform="translate(743.422112, 236.08755)"><g><path d="M 14.75 -3.125 C 14.15625 -1.875 13.363281 -0.976562 12.375 -0.4375 C 11.382812 0.09375 10.160156 0.359375 8.703125 0.359375 C 6.242188 0.359375 4.4375 -0.460938 3.28125 -2.109375 C 2.125 -3.765625 1.546875 -6.269531 1.546875 -9.625 C 1.546875 -16.394531 3.929688 -19.78125 8.703125 -19.78125 C 10.171875 -19.78125 11.394531 -19.507812 12.375 -18.96875 C 13.363281 -18.4375 14.15625 -17.582031 14.75 -16.40625 L 14.78125 -16.40625 L 14.75 -18.578125 L 14.75 -26.640625 L 17.984375 -26.640625 L 17.984375 -4 C 17.984375 -1.976562 18.019531 -0.644531 18.09375 0 L 15 0 C 14.96875 -0.1875 14.929688 -0.628906 14.890625 -1.328125 C 14.847656 -2.023438 14.828125 -2.625 14.828125 -3.125 Z M 4.9375 -9.734375 C 4.9375 -7.015625 5.296875 -5.066406 6.015625 -3.890625 C 6.734375 -2.722656 7.898438 -2.140625 9.515625 -2.140625 C 11.347656 -2.140625 12.675781 -2.769531 13.5 -4.03125 C 14.332031 -5.300781 14.75 -7.273438 14.75 -9.953125 C 14.75 -12.523438 14.332031 -14.40625 13.5 -15.59375 C 12.675781 -16.789062 11.363281 -17.390625 9.5625 -17.390625 C 7.925781 -17.390625 6.742188 -16.785156 6.015625 -15.578125 C 5.296875 -14.378906 4.9375 -12.429688 4.9375 -9.734375 Z M 4.9375 -9.734375 "/></g></g></g><g fill="#ffffff" fill-opacity="1"><g transform="translate(763.887741, 236.08755)"><g><path d="M 11.015625 0 L 7.1875 0 L 0.125 -19.421875 L 3.578125 -19.421875 L 7.859375 -6.78125 C 8.003906 -6.300781 8.414062 -4.882812 9.09375 -2.53125 L 9.71875 -4.625 L 10.421875 -6.75 L 14.84375 -19.421875 L 18.265625 -19.421875 Z M 11.015625 0 "/></g></g></g><g fill="#ffffff" fill-opacity="1"><g transform="translate(782.287037, 236.08755)"><g><path d="M 2.46875 -23.546875 L 2.46875 -26.640625 L 5.703125 -26.640625 L 5.703125 -23.546875 Z M 2.46875 0 L 2.46875 -19.421875 L 5.703125 -19.421875 L 5.703125 0 Z M 2.46875 0 "/></g></g></g><g fill="#ffffff" fill-opacity="1"><g transform="translate(790.462511, 236.08755)"><g><path d="M 17.0625 -5.375 C 17.0625 -3.539062 16.367188 -2.125 14.984375 -1.125 C 13.609375 -0.132812 11.675781 0.359375 9.1875 0.359375 C 6.757812 0.359375 4.890625 -0.0351562 3.578125 -0.828125 C 2.265625 -1.628906 1.414062 -2.875 1.03125 -4.5625 L 3.875 -5.109375 C 4.15625 -4.066406 4.722656 -3.300781 5.578125 -2.8125 C 6.441406 -2.332031 7.644531 -2.09375 9.1875 -2.09375 C 10.820312 -2.09375 12.019531 -2.34375 12.78125 -2.84375 C 13.539062 -3.351562 13.921875 -4.109375 13.921875 -5.109375 C 13.921875 -5.878906 13.65625 -6.503906 13.125 -6.984375 C 12.601562 -7.460938 11.753906 -7.859375 10.578125 -8.171875 L 8.265625 -8.78125 C 6.410156 -9.257812 5.085938 -9.726562 4.296875 -10.1875 C 3.515625 -10.644531 2.898438 -11.203125 2.453125 -11.859375 C 2.015625 -12.523438 1.796875 -13.335938 1.796875 -14.296875 C 1.796875 -16.066406 2.425781 -17.414062 3.6875 -18.34375 C 4.957031 -19.269531 6.800781 -19.734375 9.21875 -19.734375 C 11.363281 -19.734375 13.066406 -19.351562 14.328125 -18.59375 C 15.585938 -17.84375 16.390625 -16.632812 16.734375 -14.96875 L 13.8125 -14.609375 C 13.632812 -15.472656 13.148438 -16.132812 12.359375 -16.59375 C 11.578125 -17.050781 10.53125 -17.28125 9.21875 -17.28125 C 7.757812 -17.28125 6.679688 -17.054688 5.984375 -16.609375 C 5.285156 -16.171875 4.9375 -15.503906 4.9375 -14.609375 C 4.9375 -14.054688 5.078125 -13.597656 5.359375 -13.234375 C 5.648438 -12.878906 6.078125 -12.578125 6.640625 -12.328125 C 7.210938 -12.078125 8.398438 -11.734375 10.203125 -11.296875 C 11.921875 -10.859375 13.15625 -10.457031 13.90625 -10.09375 C 14.65625 -9.726562 15.25 -9.320312 15.6875 -8.875 C 16.125 -8.4375 16.460938 -7.925781 16.703125 -7.34375 C 16.941406 -6.769531 17.0625 -6.113281 17.0625 -5.375 Z M 17.0625 -5.375 "/></g></g></g><g fill="#ffffff" fill-opacity="1"><g transform="translate(808.861807, 236.08755)"><g><path d="M 18.921875 -9.734375 C 18.921875 -6.328125 18.171875 -3.789062 16.671875 -2.125 C 15.171875 -0.46875 13 0.359375 10.15625 0.359375 C 7.3125 0.359375 5.164062 -0.503906 3.71875 -2.234375 C 2.269531 -3.960938 1.546875 -6.460938 1.546875 -9.734375 C 1.546875 -16.429688 4.453125 -19.78125 10.265625 -19.78125 C 13.234375 -19.78125 15.414062 -18.960938 16.8125 -17.328125 C 18.21875 -15.691406 18.921875 -13.160156 18.921875 -9.734375 Z M 15.53125 -9.734375 C 15.53125 -12.410156 15.128906 -14.351562 14.328125 -15.5625 C 13.535156 -16.78125 12.195312 -17.390625 10.3125 -17.390625 C 8.414062 -17.390625 7.046875 -16.769531 6.203125 -15.53125 C 5.359375 -14.289062 4.9375 -12.359375 4.9375 -9.734375 C 4.9375 -7.171875 5.351562 -5.242188 6.1875 -3.953125 C 7.019531 -2.671875 8.328125 -2.03125 10.109375 -2.03125 C 12.054688 -2.03125 13.445312 -2.648438 14.28125 -3.890625 C 15.113281 -5.140625 15.53125 -7.085938 15.53125 -9.734375 Z M 15.53125 -9.734375 "/></g></g></g><g fill="#ffffff" fill-opacity="1"><g transform="translate(829.327435, 236.08755)"><g><path d="M 2.546875 0 L 2.546875 -14.90625 C 2.546875 -16.269531 2.507812 -17.773438 2.4375 -19.421875 L 5.5 -19.421875 C 5.59375 -17.222656 5.640625 -15.898438 5.640625 -15.453125 L 5.71875 -15.453125 C 6.226562 -17.117188 6.816406 -18.253906 7.484375 -18.859375 C 8.160156 -19.472656 9.109375 -19.78125 10.328125 -19.78125 C 10.765625 -19.78125 11.203125 -19.722656 11.640625 -19.609375 L 11.640625 -16.640625 C 11.210938 -16.765625 10.640625 -16.828125 9.921875 -16.828125 C 8.578125 -16.828125 7.550781 -16.25 6.84375 -15.09375 C 6.132812 -13.9375 5.78125 -12.28125 5.78125 -10.125 L 5.78125 0 Z M 2.546875 0 "/></g></g></g><g fill="#ffffff" fill-opacity="1"><g transform="translate(841.581653, 236.08755)"><g><path d="M 3.4375 7.625 C 2.550781 7.625 1.804688 7.5625 1.203125 7.4375 L 1.203125 5.015625 C 1.660156 5.078125 2.164062 5.109375 2.71875 5.109375 C 4.726562 5.109375 6.320312 3.632812 7.5 0.6875 L 7.796875 -0.09375 L 0.09375 -19.421875 L 3.546875 -19.421875 L 7.640625 -8.6875 C 7.691406 -8.519531 7.757812 -8.316406 7.84375 -8.078125 C 7.9375 -7.847656 8.207031 -7.066406 8.65625 -5.734375 C 9.113281 -4.410156 9.359375 -3.671875 9.390625 -3.515625 L 10.65625 -7.0625 L 14.90625 -19.421875 L 18.328125 -19.421875 L 10.859375 0 C 10.046875 2.070312 9.289062 3.613281 8.59375 4.625 C 7.90625 5.632812 7.140625 6.382812 6.296875 6.875 C 5.453125 7.375 4.5 7.625 3.4375 7.625 Z M 3.4375 7.625 "/></g></g></g><g fill="#ffffff" fill-opacity="1"><g transform="translate(859.980949, 236.08755)"><g/></g></g><g fill="#ffffff" fill-opacity="1"><g transform="translate(870.204782, 236.08755)"><g><path d="M 1.84375 -12.765625 C 1.84375 -16.867188 2.945312 -20.046875 5.15625 -22.296875 C 7.363281 -24.546875 10.460938 -25.671875 14.453125 -25.671875 C 17.253906 -25.671875 19.523438 -25.195312 21.265625 -24.25 C 23.015625 -23.300781 24.363281 -21.789062 25.3125 -19.71875 L 22.046875 -18.734375 C 21.328125 -20.171875 20.332031 -21.21875 19.0625 -21.875 C 17.800781 -22.539062 16.234375 -22.875 14.359375 -22.875 C 11.429688 -22.875 9.195312 -21.988281 7.65625 -20.21875 C 6.113281 -18.457031 5.34375 -15.972656 5.34375 -12.765625 C 5.34375 -9.566406 6.160156 -7.039062 7.796875 -5.1875 C 9.441406 -3.34375 11.710938 -2.421875 14.609375 -2.421875 C 16.265625 -2.421875 17.804688 -2.671875 19.234375 -3.171875 C 20.660156 -3.679688 21.816406 -4.363281 22.703125 -5.21875 L 22.703125 -9.78125 L 15.140625 -9.78125 L 15.140625 -12.65625 L 25.875 -12.65625 L 25.875 -3.9375 C 24.53125 -2.570312 22.882812 -1.515625 20.9375 -0.765625 C 18.988281 -0.015625 16.878906 0.359375 14.609375 0.359375 C 11.960938 0.359375 9.679688 -0.164062 7.765625 -1.21875 C 5.847656 -2.269531 4.378906 -3.785156 3.359375 -5.765625 C 2.347656 -7.753906 1.84375 -10.085938 1.84375 -12.765625 Z M 1.84375 -12.765625 "/></g></g></g><g fill="#ffffff" fill-opacity="1"><g transform="translate(898.827911, 236.08755)"><g><path d="M 2.546875 0 L 2.546875 -14.90625 C 2.546875 -16.269531 2.507812 -17.773438 2.4375 -19.421875 L 5.5 -19.421875 C 5.59375 -17.222656 5.640625 -15.898438 5.640625 -15.453125 L 5.71875 -15.453125 C 6.226562 -17.117188 6.816406 -18.253906 7.484375 -18.859375 C 8.160156 -19.472656 9.109375 -19.78125 10.328125 -19.78125 C 10.765625 -19.78125 11.203125 -19.722656 11.640625 -19.609375 L 11.640625 -16.640625 C 11.210938 -16.765625 10.640625 -16.828125 9.921875 -16.828125 C 8.578125 -16.828125 7.550781 -16.25 6.84375 -15.09375 C 6.132812 -13.9375 5.78125 -12.28125 5.78125 -10.125 L 5.78125 0 Z M 2.546875 0 "/></g></g></g><g fill="#ffffff" fill-opacity="1"><g transform="translate(911.082118, 236.08755)"><g><path d="M 18.921875 -9.734375 C 18.921875 -6.328125 18.171875 -3.789062 16.671875 -2.125 C 15.171875 -0.46875 13 0.359375 10.15625 0.359375 C 7.3125 0.359375 5.164062 -0.503906 3.71875 -2.234375 C 2.269531 -3.960938 1.546875 -6.460938 1.546875 -9.734375 C 1.546875 -16.429688 4.453125 -19.78125 10.265625 -19.78125 C 13.234375 -19.78125 15.414062 -18.960938 16.8125 -17.328125 C 18.21875 -15.691406 18.921875 -13.160156 18.921875 -9.734375 Z M 15.53125 -9.734375 C 15.53125 -12.410156 15.128906 -14.351562 14.328125 -15.5625 C 13.535156 -16.78125 12.195312 -17.390625 10.3125 -17.390625 C 8.414062 -17.390625 7.046875 -16.769531 6.203125 -15.53125 C 5.359375 -14.289062 4.9375 -12.359375 4.9375 -9.734375 C 4.9375 -7.171875 5.351562 -5.242188 6.1875 -3.953125 C 7.019531 -2.671875 8.328125 -2.03125 10.109375 -2.03125 C 12.054688 -2.03125 13.445312 -2.648438 14.28125 -3.890625 C 15.113281 -5.140625 15.53125 -7.085938 15.53125 -9.734375 Z M 15.53125 -9.734375 "/></g></g></g><g fill="#ffffff" fill-opacity="1"><g transform="translate(931.547746, 236.08755)"><g><path d="M 5.640625 -19.421875 L 5.640625 -7.109375 C 5.640625 -5.828125 5.765625 -4.832031 6.015625 -4.125 C 6.265625 -3.414062 6.664062 -2.90625 7.21875 -2.59375 C 7.769531 -2.289062 8.578125 -2.140625 9.640625 -2.140625 C 11.203125 -2.140625 12.429688 -2.671875 13.328125 -3.734375 C 14.222656 -4.796875 14.671875 -6.273438 14.671875 -8.171875 L 14.671875 -19.421875 L 17.90625 -19.421875 L 17.90625 -4.140625 C 17.90625 -1.878906 17.941406 -0.5 18.015625 0 L 14.96875 0 C 14.957031 -0.0625 14.941406 -0.222656 14.921875 -0.484375 C 14.910156 -0.742188 14.894531 -1.046875 14.875 -1.390625 C 14.863281 -1.734375 14.847656 -2.378906 14.828125 -3.328125 L 14.765625 -3.328125 C 14.023438 -1.984375 13.164062 -1.03125 12.1875 -0.46875 C 11.207031 0.0820312 9.992188 0.359375 8.546875 0.359375 C 6.421875 0.359375 4.863281 -0.164062 3.875 -1.21875 C 2.882812 -2.28125 2.390625 -4.035156 2.390625 -6.484375 L 2.390625 -19.421875 Z M 5.640625 -19.421875 "/></g></g></g><g fill="#ffffff" fill-opacity="1"><g transform="translate(952.013375, 236.08755)"><g><path d="M 18.921875 -9.796875 C 18.921875 -3.023438 16.535156 0.359375 11.765625 0.359375 C 8.773438 0.359375 6.765625 -0.765625 5.734375 -3.015625 L 5.640625 -3.015625 C 5.691406 -2.921875 5.71875 -1.90625 5.71875 0.03125 L 5.71875 7.625 L 2.484375 7.625 L 2.484375 -15.453125 C 2.484375 -17.453125 2.445312 -18.773438 2.375 -19.421875 L 5.5 -19.421875 C 5.507812 -19.378906 5.523438 -19.207031 5.546875 -18.90625 C 5.578125 -18.613281 5.601562 -18.160156 5.625 -17.546875 C 5.65625 -16.941406 5.671875 -16.523438 5.671875 -16.296875 L 5.75 -16.296875 C 6.320312 -17.492188 7.082031 -18.367188 8.03125 -18.921875 C 8.976562 -19.484375 10.222656 -19.765625 11.765625 -19.765625 C 14.160156 -19.765625 15.953125 -18.960938 17.140625 -17.359375 C 18.328125 -15.753906 18.921875 -13.234375 18.921875 -9.796875 Z M 15.53125 -9.734375 C 15.53125 -12.429688 15.160156 -14.359375 14.421875 -15.515625 C 13.691406 -16.679688 12.53125 -17.265625 10.9375 -17.265625 C 9.65625 -17.265625 8.648438 -16.992188 7.921875 -16.453125 C 7.203125 -15.921875 6.65625 -15.082031 6.28125 -13.9375 C 5.90625 -12.789062 5.71875 -11.304688 5.71875 -9.484375 C 5.71875 -6.929688 6.125 -5.050781 6.9375 -3.84375 C 7.75 -2.632812 9.070312 -2.03125 10.90625 -2.03125 C 12.507812 -2.03125 13.679688 -2.617188 14.421875 -3.796875 C 15.160156 -4.972656 15.53125 -6.953125 15.53125 -9.734375 Z M 15.53125 -9.734375 "/></g></g></g><g clip-path="url(#1a9993ba9d)"><g clip-path="url(#47aa34c13c)"><g clip-path="url(#bfb5e35140)"><path fill="#ffffff" d="M 670.253906 91.296875 C 666.4375 94.585938 663.199219 98.386719 660.492188 102.648438 C 655.3125 110.808594 652.175781 119.734375 650.613281 129.269531 C 648.421875 142.65625 649.265625 156.015625 650.441406 169.382812 C 651.332031 179.449219 652.683594 189.46875 652.34375 199.644531 C 651.980469 210.539062 651.074219 221.347656 647.695312 231.78125 C 642.71875 247.148438 634.195312 259.726562 619.828125 267.535156 C 618.449219 268.285156 616.988281 268.882812 615.539062 269.484375 C 615.164062 269.640625 614.683594 269.53125 614.253906 269.546875 C 614.21875 269.386719 614.183594 269.226562 614.152344 269.066406 C 614.59375 268.804688 615.019531 268.507812 615.480469 268.289062 C 627.0625 262.699219 634.808594 253.386719 640.078125 241.75 C 645.636719 229.480469 646.925781 216.433594 646.578125 203.191406 C 646.238281 190.199219 645.582031 177.21875 645.140625 164.230469 C 644.839844 155.488281 645.015625 146.738281 646.179688 138.050781 C 648.042969 124.089844 652.183594 110.964844 661.175781 99.867188 C 663.800781 96.625 666.894531 93.777344 669.773438 90.746094 C 669.9375 90.929688 670.09375 91.113281 670.253906 91.296875 Z M 670.253906 91.296875 " fill-opacity="1" fill-rule="nonzero"/></g></g></g><g clip-path="url(#1b204cc71f)"><g clip-path="url(#ca97d3f205)"><g clip-path="url(#860b653a92)"><path fill="#ffffff" d="M 682.703125 89.339844 C 679.382812 93.128906 676.703125 97.34375 674.613281 101.9375 C 670.617188 110.738281 668.75 120.011719 668.527344 129.671875 C 668.214844 143.234375 670.90625 156.347656 673.929688 169.421875 C 676.207031 179.265625 678.9375 189 680.015625 199.125 C 681.171875 209.96875 681.769531 220.792969 679.875 231.597656 C 677.082031 247.503906 670.386719 261.148438 657.246094 270.875 C 655.984375 271.808594 654.621094 272.605469 653.269531 273.398438 C 652.917969 273.605469 652.429688 273.566406 652.003906 273.640625 C 651.949219 273.488281 651.890625 273.335938 651.835938 273.179688 C 652.238281 272.859375 652.617188 272.507812 653.042969 272.222656 C 663.734375 265.082031 670.117188 254.78125 673.71875 242.527344 C 677.515625 229.605469 676.980469 216.507812 674.800781 203.441406 C 672.660156 190.621094 670.207031 177.859375 667.960938 165.054688 C 666.453125 156.441406 665.410156 147.75 665.355469 138.984375 C 665.261719 124.898438 667.539062 111.328125 674.902344 99.089844 C 677.054688 95.515625 679.722656 92.261719 682.152344 88.863281 C 682.335938 89.019531 682.519531 89.179688 682.703125 89.339844 Z M 682.703125 89.339844 " fill-opacity="1" fill-rule="nonzero"/></g></g></g></svg>