<svg xmlns="http://www.w3.org/2000/svg" xmlns:xlink="http://www.w3.org/1999/xlink" width="1600" zoomAndPan="magnify" viewBox="0 0 1200 374.999991" height="500" preserveAspectRatio="xMidYMid meet" version="1.0"><defs><g/><clipPath id="b25f9db1db"><path d="M 532 53 L 589 53 L 589 233 L 532 233 Z M 532 53 " clip-rule="nonzero"/></clipPath><clipPath id="c322870511"><path d="M 532.03125 232.261719 L 574.292969 50.980469 L 598.210938 56.554688 L 555.949219 237.835938 Z M 532.03125 232.261719 " clip-rule="nonzero"/></clipPath><clipPath id="901c3004c3"><path d="M 532.03125 232.261719 L 574.292969 50.980469 L 598.210938 56.554688 L 555.949219 237.835938 Z M 532.03125 232.261719 " clip-rule="nonzero"/></clipPath><clipPath id="682de32d1c"><path d="M 569 51 L 601 51 L 601 237 L 569 237 Z M 569 51 " clip-rule="nonzero"/></clipPath><clipPath id="2310654cad"><path d="M 569.773438 236.386719 L 586.449219 50.992188 L 610.910156 53.191406 L 594.234375 238.585938 Z M 569.773438 236.386719 " clip-rule="nonzero"/></clipPath><clipPath id="8cc3d274a7"><path d="M 569.773438 236.386719 L 586.449219 50.992188 L 610.910156 53.191406 L 594.234375 238.585938 Z M 569.773438 236.386719 " clip-rule="nonzero"/></clipPath><clipPath id="99405d3c11"><rect x="0" width="1036" y="0" height="290"/></clipPath></defs><g transform="matrix(1, 0, 0, 1, 82, 43)"><g clip-path="url(#99405d3c11)"><g fill="#142846" fill-opacity="1"><g transform="translate(83.869829, 176.040022)"><g><path d="M 88.875 -41.84375 C 88.875 -33.207031 87.160156 -25.613281 83.734375 -19.0625 C 80.316406 -12.507812 75.421875 -7.5 69.046875 -4.03125 C 62.679688 -0.5625 55.253906 1.171875 46.765625 1.171875 C 33.710938 1.171875 23.476562 -2.660156 16.0625 -10.328125 C 8.65625 -17.992188 4.953125 -28.5 4.953125 -41.84375 C 4.953125 -55.132812 8.644531 -65.507812 16.03125 -72.96875 C 23.425781 -80.425781 33.710938 -84.15625 46.890625 -84.15625 C 60.054688 -84.15625 70.34375 -80.382812 77.75 -72.84375 C 85.164062 -65.3125 88.875 -54.976562 88.875 -41.84375 Z M 71.125 -41.84375 C 71.125 -50.78125 69 -57.789062 64.75 -62.875 C 60.507812 -67.957031 54.554688 -70.5 46.890625 -70.5 C 39.097656 -70.5 33.078125 -67.976562 28.828125 -62.9375 C 24.585938 -57.894531 22.46875 -50.863281 22.46875 -41.84375 C 22.46875 -32.738281 24.640625 -25.566406 28.984375 -20.328125 C 33.328125 -15.085938 39.253906 -12.46875 46.765625 -12.46875 C 54.546875 -12.46875 60.550781 -15.019531 64.78125 -20.125 C 69.007812 -25.226562 71.125 -32.46875 71.125 -41.84375 Z M 71.125 -41.84375 "/></g></g></g><g fill="#142846" fill-opacity="1"><g transform="translate(177.814991, 176.040022)"><g><path d="M 65.171875 0 L 45.875 -31.484375 L 25.484375 -31.484375 L 25.484375 0 L 8.078125 0 L 8.078125 -82.90625 L 49.59375 -82.90625 C 59.5 -82.90625 67.144531 -80.773438 72.53125 -76.515625 C 77.925781 -72.265625 80.625 -66.160156 80.625 -58.203125 C 80.625 -52.390625 78.972656 -47.375 75.671875 -43.15625 C 72.367188 -38.945312 67.90625 -36.175781 62.28125 -34.84375 L 84.75 0 Z M 63.109375 -57.484375 C 63.109375 -65.453125 57.992188 -69.4375 47.765625 -69.4375 L 25.484375 -69.4375 L 25.484375 -44.953125 L 48.234375 -44.953125 C 53.109375 -44.953125 56.804688 -46.050781 59.328125 -48.25 C 61.847656 -50.445312 63.109375 -53.523438 63.109375 -57.484375 Z M 63.109375 -57.484375 "/></g></g></g><g fill="#142846" fill-opacity="1"><g transform="translate(265.037149, 176.040022)"><g><path d="M 45.59375 -69.5 L 45.59375 0 L 28.1875 0 L 28.1875 -69.5 L 1.359375 -69.5 L 1.359375 -82.90625 L 72.484375 -82.90625 L 72.484375 -69.5 Z M 45.59375 -69.5 "/></g></g></g><g fill="#142846" fill-opacity="1"><g transform="translate(329.848519, 176.040022)"><g><path d="M 66.8125 0 L 59.453125 -21.1875 L 27.78125 -21.1875 L 20.40625 0 L 3 0 L 33.328125 -82.90625 L 53.84375 -82.90625 L 84.046875 0 Z M 43.578125 -70.140625 L 43.234375 -68.84375 C 42.835938 -67.4375 42.363281 -65.828125 41.8125 -64.015625 C 41.257812 -62.210938 37.878906 -52.289062 31.671875 -34.25 L 55.546875 -34.25 L 47.359375 -58.078125 L 44.828125 -66.078125 Z M 43.578125 -70.140625 "/></g></g></g><g fill="#142846" fill-opacity="1"><g transform="translate(417.070677, 176.040022)"><g><path d="M 47.53125 -12.421875 C 52.050781 -12.421875 56.4375 -13.078125 60.6875 -14.390625 C 64.9375 -15.703125 68.21875 -17.378906 70.53125 -19.421875 L 70.53125 -30.890625 L 50.25 -30.890625 L 50.25 -43.71875 L 86.453125 -43.71875 L 86.453125 -13.234375 C 82.054688 -8.722656 76.328125 -5.191406 69.265625 -2.640625 C 62.210938 -0.0976562 54.8125 1.171875 47.0625 1.171875 C 33.539062 1.171875 23.140625 -2.5625 15.859375 -10.03125 C 8.585938 -17.507812 4.953125 -28.113281 4.953125 -41.84375 C 4.953125 -55.488281 8.609375 -65.953125 15.921875 -73.234375 C 23.234375 -80.515625 33.75 -84.15625 47.46875 -84.15625 C 66.976562 -84.15625 79.382812 -76.953125 84.6875 -62.546875 L 68.640625 -57.734375 C 66.910156 -61.929688 64.195312 -65.109375 60.5 -67.265625 C 56.8125 -69.421875 52.46875 -70.5 47.46875 -70.5 C 39.289062 -70.5 33.078125 -68.023438 28.828125 -63.078125 C 24.585938 -58.140625 22.46875 -51.0625 22.46875 -41.84375 C 22.46875 -32.46875 24.660156 -25.21875 29.046875 -20.09375 C 33.429688 -14.976562 39.59375 -12.421875 47.53125 -12.421875 Z M 47.53125 -12.421875 "/></g></g></g><g fill="#142846" fill-opacity="1"><g transform="translate(637.118426, 109.104979)"><g><path d="M 26.875 -12.75 C 26.875 -10.101562 26.363281 -7.785156 25.34375 -5.796875 C 24.332031 -3.816406 22.878906 -2.296875 20.984375 -1.234375 C 19.097656 -0.171875 16.867188 0.359375 14.296875 0.359375 C 11.691406 0.359375 9.445312 -0.164062 7.5625 -1.21875 C 5.675781 -2.269531 4.234375 -3.789062 3.234375 -5.78125 C 2.242188 -7.769531 1.75 -10.09375 1.75 -12.75 C 1.75 -16.789062 2.851562 -19.945312 5.0625 -22.21875 C 7.28125 -24.5 10.367188 -25.640625 14.328125 -25.640625 C 16.898438 -25.640625 19.132812 -25.128906 21.03125 -24.109375 C 22.925781 -23.085938 24.375 -21.601562 25.375 -19.65625 C 26.375 -17.707031 26.875 -15.40625 26.875 -12.75 Z M 23.375 -12.75 C 23.375 -15.894531 22.582031 -18.363281 21 -20.15625 C 19.425781 -21.945312 17.203125 -22.84375 14.328125 -22.84375 C 11.421875 -22.84375 9.175781 -21.957031 7.59375 -20.1875 C 6.019531 -18.414062 5.234375 -15.9375 5.234375 -12.75 C 5.234375 -9.582031 6.03125 -7.066406 7.625 -5.203125 C 9.226562 -3.347656 11.453125 -2.421875 14.296875 -2.421875 C 17.210938 -2.421875 19.453125 -3.316406 21.015625 -5.109375 C 22.585938 -6.910156 23.375 -9.457031 23.375 -12.75 Z M 23.375 -12.75 "/></g></g></g><g fill="#142846" fill-opacity="1"><g transform="translate(665.746637, 109.104979)"><g><path d="M 5.703125 -16.078125 C 6.390625 -17.347656 7.222656 -18.28125 8.203125 -18.875 C 9.179688 -19.46875 10.421875 -19.765625 11.921875 -19.765625 C 14.023438 -19.765625 15.578125 -19.238281 16.578125 -18.1875 C 17.578125 -17.144531 18.078125 -15.390625 18.078125 -12.921875 L 18.078125 0 L 14.828125 0 L 14.828125 -12.296875 C 14.828125 -13.660156 14.703125 -14.671875 14.453125 -15.328125 C 14.203125 -15.992188 13.785156 -16.484375 13.203125 -16.796875 C 12.628906 -17.109375 11.835938 -17.265625 10.828125 -17.265625 C 9.296875 -17.265625 8.070312 -16.738281 7.15625 -15.6875 C 6.238281 -14.632812 5.78125 -13.21875 5.78125 -11.4375 L 5.78125 0 L 2.546875 0 L 2.546875 -26.609375 L 5.78125 -26.609375 L 5.78125 -19.6875 C 5.78125 -18.957031 5.757812 -18.203125 5.71875 -17.421875 C 5.675781 -16.648438 5.648438 -16.203125 5.640625 -16.078125 Z M 5.703125 -16.078125 "/></g></g></g><g fill="#142846" fill-opacity="1"><g transform="translate(686.215897, 109.104979)"><g><path d="M 2.46875 -23.515625 L 2.46875 -26.609375 L 5.703125 -26.609375 L 5.703125 -23.515625 Z M 2.46875 0 L 2.46875 -19.40625 L 5.703125 -19.40625 L 5.703125 0 Z M 2.46875 0 "/></g></g></g><g fill="#142846" fill-opacity="1"><g transform="translate(694.392819, 109.104979)"><g><path d="M 18.921875 -9.71875 C 18.921875 -6.320312 18.171875 -3.789062 16.671875 -2.125 C 15.179688 -0.46875 13.007812 0.359375 10.15625 0.359375 C 7.3125 0.359375 5.164062 -0.503906 3.71875 -2.234375 C 2.269531 -3.960938 1.546875 -6.457031 1.546875 -9.71875 C 1.546875 -16.414062 4.453125 -19.765625 10.265625 -19.765625 C 13.234375 -19.765625 15.414062 -18.945312 16.8125 -17.3125 C 18.21875 -15.675781 18.921875 -13.144531 18.921875 -9.71875 Z M 15.53125 -9.71875 C 15.53125 -12.394531 15.128906 -14.335938 14.328125 -15.546875 C 13.535156 -16.765625 12.195312 -17.375 10.3125 -17.375 C 8.425781 -17.375 7.054688 -16.753906 6.203125 -15.515625 C 5.359375 -14.273438 4.9375 -12.34375 4.9375 -9.71875 C 4.9375 -7.15625 5.351562 -5.234375 6.1875 -3.953125 C 7.019531 -2.671875 8.332031 -2.03125 10.125 -2.03125 C 12.0625 -2.03125 13.445312 -2.648438 14.28125 -3.890625 C 15.113281 -5.128906 15.53125 -7.070312 15.53125 -9.71875 Z M 15.53125 -9.71875 "/></g></g></g><g fill="#142846" fill-opacity="1"><g transform="translate(714.862079, 109.104979)"><g/></g></g><g fill="#142846" fill-opacity="1"><g transform="translate(725.087723, 109.104979)"><g><path d="M 20.921875 0 L 14.34375 -10.484375 L 6.453125 -10.484375 L 6.453125 0 L 3.015625 0 L 3.015625 -25.265625 L 14.9375 -25.265625 C 17.789062 -25.265625 19.992188 -24.625 21.546875 -23.34375 C 23.097656 -22.070312 23.875 -20.300781 23.875 -18.03125 C 23.875 -16.15625 23.320312 -14.578125 22.21875 -13.296875 C 21.125 -12.023438 19.613281 -11.222656 17.6875 -10.890625 L 24.875 0 Z M 20.421875 -18 C 20.421875 -19.46875 19.921875 -20.585938 18.921875 -21.359375 C 17.921875 -22.128906 16.476562 -22.515625 14.59375 -22.515625 L 6.453125 -22.515625 L 6.453125 -13.203125 L 14.734375 -13.203125 C 16.546875 -13.203125 17.945312 -13.617188 18.9375 -14.453125 C 19.925781 -15.296875 20.421875 -16.476562 20.421875 -18 Z M 20.421875 -18 "/></g></g></g><g fill="#142846" fill-opacity="1"><g transform="translate(751.66721, 109.104979)"><g><path d="M 2.46875 -23.515625 L 2.46875 -26.609375 L 5.703125 -26.609375 L 5.703125 -23.515625 Z M 2.46875 0 L 2.46875 -19.40625 L 5.703125 -19.40625 L 5.703125 0 Z M 2.46875 0 "/></g></g></g><g fill="#142846" fill-opacity="1"><g transform="translate(759.844131, 109.104979)"><g><path d="M 11.015625 0 L 7.1875 0 L 0.125 -19.40625 L 3.578125 -19.40625 L 7.859375 -6.78125 C 8.015625 -6.300781 8.425781 -4.882812 9.09375 -2.53125 L 9.71875 -4.625 L 10.421875 -6.734375 L 14.84375 -19.40625 L 18.28125 -19.40625 Z M 11.015625 0 "/></g></g></g><g fill="#142846" fill-opacity="1"><g transform="translate(778.246697, 109.104979)"><g><path d="M 4.96875 -9.015625 C 4.96875 -6.796875 5.425781 -5.082031 6.34375 -3.875 C 7.269531 -2.664062 8.617188 -2.0625 10.390625 -2.0625 C 11.796875 -2.0625 12.921875 -2.34375 13.765625 -2.90625 C 14.609375 -3.46875 15.175781 -4.175781 15.46875 -5.03125 L 18.3125 -4.234375 C 17.15625 -1.171875 14.515625 0.359375 10.390625 0.359375 C 7.515625 0.359375 5.320312 -0.492188 3.8125 -2.203125 C 2.3125 -3.910156 1.5625 -6.453125 1.5625 -9.828125 C 1.5625 -13.023438 2.3125 -15.476562 3.8125 -17.1875 C 5.320312 -18.90625 7.472656 -19.765625 10.265625 -19.765625 C 15.984375 -19.765625 18.84375 -16.328125 18.84375 -9.453125 L 18.84375 -9.015625 Z M 15.5 -11.5 C 15.3125 -13.539062 14.785156 -15.03125 13.921875 -15.96875 C 13.066406 -16.90625 11.828125 -17.375 10.203125 -17.375 C 8.640625 -17.375 7.398438 -16.847656 6.484375 -15.796875 C 5.566406 -14.753906 5.070312 -13.320312 5 -11.5 Z M 15.5 -11.5 "/></g></g></g><g fill="#142846" fill-opacity="1"><g transform="translate(798.715957, 109.104979)"><g><path d="M 2.546875 0 L 2.546875 -14.875 C 2.546875 -16.238281 2.507812 -17.75 2.4375 -19.40625 L 5.5 -19.40625 C 5.59375 -17.195312 5.640625 -15.875 5.640625 -15.4375 L 5.71875 -15.4375 C 6.226562 -17.09375 6.816406 -18.226562 7.484375 -18.84375 C 8.160156 -19.457031 9.109375 -19.765625 10.328125 -19.765625 C 10.765625 -19.765625 11.203125 -19.703125 11.640625 -19.578125 L 11.640625 -16.625 C 11.210938 -16.738281 10.640625 -16.796875 9.921875 -16.796875 C 8.578125 -16.796875 7.550781 -16.21875 6.84375 -15.0625 C 6.132812 -13.914062 5.78125 -12.265625 5.78125 -10.109375 L 5.78125 0 Z M 2.546875 0 "/></g></g></g><g fill="#142846" fill-opacity="1"><g transform="translate(637.118426, 153.889581)"><g><path d="M 12.9375 -22.46875 L 12.9375 0 L 9.53125 0 L 9.53125 -22.46875 L 0.828125 -22.46875 L 0.828125 -25.265625 L 21.640625 -25.265625 L 21.640625 -22.46875 Z M 12.9375 -22.46875 "/></g></g></g><g fill="#142846" fill-opacity="1"><g transform="translate(655.520815, 153.889581)"><g><path d="M 4.96875 -9.015625 C 4.96875 -6.796875 5.425781 -5.082031 6.34375 -3.875 C 7.269531 -2.664062 8.617188 -2.0625 10.390625 -2.0625 C 11.796875 -2.0625 12.921875 -2.34375 13.765625 -2.90625 C 14.609375 -3.46875 15.175781 -4.175781 15.46875 -5.03125 L 18.3125 -4.234375 C 17.15625 -1.171875 14.515625 0.359375 10.390625 0.359375 C 7.515625 0.359375 5.320312 -0.492188 3.8125 -2.203125 C 2.3125 -3.910156 1.5625 -6.453125 1.5625 -9.828125 C 1.5625 -13.023438 2.3125 -15.476562 3.8125 -17.1875 C 5.320312 -18.90625 7.472656 -19.765625 10.265625 -19.765625 C 15.984375 -19.765625 18.84375 -16.328125 18.84375 -9.453125 L 18.84375 -9.015625 Z M 15.5 -11.5 C 15.3125 -13.539062 14.785156 -15.03125 13.921875 -15.96875 C 13.066406 -16.90625 11.828125 -17.375 10.203125 -17.375 C 8.640625 -17.375 7.398438 -16.847656 6.484375 -15.796875 C 5.566406 -14.753906 5.070312 -13.320312 5 -11.5 Z M 15.5 -11.5 "/></g></g></g><g fill="#142846" fill-opacity="1"><g transform="translate(675.990075, 153.889581)"><g><path d="M 4.9375 -9.796875 C 4.9375 -7.210938 5.34375 -5.296875 6.15625 -4.046875 C 6.976562 -2.804688 8.207031 -2.1875 9.84375 -2.1875 C 11 -2.1875 11.960938 -2.492188 12.734375 -3.109375 C 13.503906 -3.734375 13.984375 -4.691406 14.171875 -5.984375 L 17.4375 -5.765625 C 17.1875 -3.898438 16.390625 -2.410156 15.046875 -1.296875 C 13.703125 -0.191406 12 0.359375 9.9375 0.359375 C 7.21875 0.359375 5.140625 -0.492188 3.703125 -2.203125 C 2.273438 -3.921875 1.5625 -6.425781 1.5625 -9.71875 C 1.5625 -12.976562 2.28125 -15.46875 3.71875 -17.1875 C 5.15625 -18.90625 7.21875 -19.765625 9.90625 -19.765625 C 11.894531 -19.765625 13.546875 -19.25 14.859375 -18.21875 C 16.171875 -17.1875 16.992188 -15.769531 17.328125 -13.96875 L 14 -13.71875 C 13.832031 -14.789062 13.40625 -15.644531 12.71875 -16.28125 C 12.039062 -16.914062 11.070312 -17.234375 9.8125 -17.234375 C 8.101562 -17.234375 6.863281 -16.664062 6.09375 -15.53125 C 5.320312 -14.394531 4.9375 -12.484375 4.9375 -9.796875 Z M 4.9375 -9.796875 "/></g></g></g><g fill="#142846" fill-opacity="1"><g transform="translate(694.392641, 153.889581)"><g><path d="M 5.703125 -16.078125 C 6.390625 -17.347656 7.222656 -18.28125 8.203125 -18.875 C 9.179688 -19.46875 10.421875 -19.765625 11.921875 -19.765625 C 14.023438 -19.765625 15.578125 -19.238281 16.578125 -18.1875 C 17.578125 -17.144531 18.078125 -15.390625 18.078125 -12.921875 L 18.078125 0 L 14.828125 0 L 14.828125 -12.296875 C 14.828125 -13.660156 14.703125 -14.671875 14.453125 -15.328125 C 14.203125 -15.992188 13.785156 -16.484375 13.203125 -16.796875 C 12.628906 -17.109375 11.835938 -17.265625 10.828125 -17.265625 C 9.296875 -17.265625 8.070312 -16.738281 7.15625 -15.6875 C 6.238281 -14.632812 5.78125 -13.21875 5.78125 -11.4375 L 5.78125 0 L 2.546875 0 L 2.546875 -26.609375 L 5.78125 -26.609375 L 5.78125 -19.6875 C 5.78125 -18.957031 5.757812 -18.203125 5.71875 -17.421875 C 5.675781 -16.648438 5.648438 -16.203125 5.640625 -16.078125 Z M 5.703125 -16.078125 "/></g></g></g><g fill="#142846" fill-opacity="1"><g transform="translate(714.861901, 153.889581)"><g><path d="M 14.828125 0 L 14.828125 -12.296875 C 14.828125 -13.578125 14.703125 -14.566406 14.453125 -15.265625 C 14.203125 -15.972656 13.800781 -16.484375 13.25 -16.796875 C 12.695312 -17.109375 11.890625 -17.265625 10.828125 -17.265625 C 9.265625 -17.265625 8.03125 -16.734375 7.125 -15.671875 C 6.226562 -14.609375 5.78125 -13.128906 5.78125 -11.234375 L 5.78125 0 L 2.546875 0 L 2.546875 -15.25 C 2.546875 -17.507812 2.507812 -18.894531 2.4375 -19.40625 L 5.5 -19.40625 C 5.507812 -19.34375 5.519531 -19.175781 5.53125 -18.90625 C 5.539062 -18.644531 5.554688 -18.34375 5.578125 -18 C 5.597656 -17.664062 5.617188 -17.023438 5.640625 -16.078125 L 5.703125 -16.078125 C 6.441406 -17.421875 7.300781 -18.367188 8.28125 -18.921875 C 9.257812 -19.484375 10.472656 -19.765625 11.921875 -19.765625 C 14.046875 -19.765625 15.601562 -19.234375 16.59375 -18.171875 C 17.582031 -17.109375 18.078125 -15.359375 18.078125 -12.921875 L 18.078125 0 Z M 14.828125 0 "/></g></g></g><g fill="#142846" fill-opacity="1"><g transform="translate(735.331161, 153.889581)"><g><path d="M 18.921875 -9.71875 C 18.921875 -6.320312 18.171875 -3.789062 16.671875 -2.125 C 15.179688 -0.46875 13.007812 0.359375 10.15625 0.359375 C 7.3125 0.359375 5.164062 -0.503906 3.71875 -2.234375 C 2.269531 -3.960938 1.546875 -6.457031 1.546875 -9.71875 C 1.546875 -16.414062 4.453125 -19.765625 10.265625 -19.765625 C 13.234375 -19.765625 15.414062 -18.945312 16.8125 -17.3125 C 18.21875 -15.675781 18.921875 -13.144531 18.921875 -9.71875 Z M 15.53125 -9.71875 C 15.53125 -12.394531 15.128906 -14.335938 14.328125 -15.546875 C 13.535156 -16.765625 12.195312 -17.375 10.3125 -17.375 C 8.425781 -17.375 7.054688 -16.753906 6.203125 -15.515625 C 5.359375 -14.273438 4.9375 -12.34375 4.9375 -9.71875 C 4.9375 -7.15625 5.351562 -5.234375 6.1875 -3.953125 C 7.019531 -2.671875 8.332031 -2.03125 10.125 -2.03125 C 12.0625 -2.03125 13.445312 -2.648438 14.28125 -3.890625 C 15.113281 -5.128906 15.53125 -7.070312 15.53125 -9.71875 Z M 15.53125 -9.71875 "/></g></g></g><g fill="#142846" fill-opacity="1"><g transform="translate(755.800421, 153.889581)"><g><path d="M 2.484375 0 L 2.484375 -26.609375 L 5.71875 -26.609375 L 5.71875 0 Z M 2.484375 0 "/></g></g></g><g fill="#142846" fill-opacity="1"><g transform="translate(763.977343, 153.889581)"><g><path d="M 18.921875 -9.71875 C 18.921875 -6.320312 18.171875 -3.789062 16.671875 -2.125 C 15.179688 -0.46875 13.007812 0.359375 10.15625 0.359375 C 7.3125 0.359375 5.164062 -0.503906 3.71875 -2.234375 C 2.269531 -3.960938 1.546875 -6.457031 1.546875 -9.71875 C 1.546875 -16.414062 4.453125 -19.765625 10.265625 -19.765625 C 13.234375 -19.765625 15.414062 -18.945312 16.8125 -17.3125 C 18.21875 -15.675781 18.921875 -13.144531 18.921875 -9.71875 Z M 15.53125 -9.71875 C 15.53125 -12.394531 15.128906 -14.335938 14.328125 -15.546875 C 13.535156 -16.765625 12.195312 -17.375 10.3125 -17.375 C 8.425781 -17.375 7.054688 -16.753906 6.203125 -15.515625 C 5.359375 -14.273438 4.9375 -12.34375 4.9375 -9.71875 C 4.9375 -7.15625 5.351562 -5.234375 6.1875 -3.953125 C 7.019531 -2.671875 8.332031 -2.03125 10.125 -2.03125 C 12.0625 -2.03125 13.445312 -2.648438 14.28125 -3.890625 C 15.113281 -5.128906 15.53125 -7.070312 15.53125 -9.71875 Z M 15.53125 -9.71875 "/></g></g></g><g fill="#142846" fill-opacity="1"><g transform="translate(784.446603, 153.889581)"><g><path d="M 9.84375 7.625 C 7.726562 7.625 6.039062 7.207031 4.78125 6.375 C 3.519531 5.539062 2.710938 4.359375 2.359375 2.828125 L 5.609375 2.359375 C 5.828125 3.265625 6.300781 3.957031 7.03125 4.4375 C 7.769531 4.914062 8.738281 5.15625 9.9375 5.15625 C 13.164062 5.15625 14.78125 3.273438 14.78125 -0.484375 L 14.78125 -3.609375 L 14.734375 -3.609375 C 14.128906 -2.359375 13.289062 -1.421875 12.21875 -0.796875 C 11.15625 -0.171875 9.910156 0.140625 8.484375 0.140625 C 6.097656 0.140625 4.34375 -0.644531 3.21875 -2.21875 C 2.101562 -3.800781 1.546875 -6.28125 1.546875 -9.65625 C 1.546875 -13.09375 2.144531 -15.625 3.34375 -17.25 C 4.550781 -18.882812 6.382812 -19.703125 8.84375 -19.703125 C 10.21875 -19.703125 11.410156 -19.390625 12.421875 -18.765625 C 13.441406 -18.140625 14.226562 -17.242188 14.78125 -16.078125 L 14.8125 -16.078125 C 14.8125 -16.441406 14.832031 -17.066406 14.875 -17.953125 C 14.925781 -18.835938 14.976562 -19.320312 15.03125 -19.40625 L 18.09375 -19.40625 C 18.03125 -18.757812 18 -17.421875 18 -15.390625 L 18 -0.5625 C 18 4.894531 15.28125 7.625 9.84375 7.625 Z M 14.78125 -9.703125 C 14.78125 -11.273438 14.5625 -12.628906 14.125 -13.765625 C 13.695312 -14.910156 13.085938 -15.785156 12.296875 -16.390625 C 11.515625 -16.992188 10.628906 -17.296875 9.640625 -17.296875 C 7.984375 -17.296875 6.773438 -16.695312 6.015625 -15.5 C 5.265625 -14.3125 4.890625 -12.378906 4.890625 -9.703125 C 4.890625 -7.046875 5.242188 -5.132812 5.953125 -3.96875 C 6.660156 -2.8125 7.867188 -2.234375 9.578125 -2.234375 C 10.597656 -2.234375 11.503906 -2.53125 12.296875 -3.125 C 13.085938 -3.726562 13.695312 -4.585938 14.125 -5.703125 C 14.5625 -6.828125 14.78125 -8.160156 14.78125 -9.703125 Z M 14.78125 -9.703125 "/></g></g></g><g fill="#142846" fill-opacity="1"><g transform="translate(804.915863, 153.889581)"><g><path d="M 3.4375 7.625 C 2.550781 7.625 1.804688 7.554688 1.203125 7.421875 L 1.203125 5 C 1.660156 5.070312 2.164062 5.109375 2.71875 5.109375 C 4.726562 5.109375 6.320312 3.632812 7.5 0.6875 L 7.796875 -0.09375 L 0.09375 -19.40625 L 3.546875 -19.40625 L 7.640625 -8.671875 C 7.703125 -8.503906 7.773438 -8.304688 7.859375 -8.078125 C 7.941406 -7.847656 8.207031 -7.066406 8.65625 -5.734375 C 9.113281 -4.410156 9.363281 -3.671875 9.40625 -3.515625 L 10.65625 -7.046875 L 14.921875 -19.40625 L 18.328125 -19.40625 L 10.859375 0 C 10.054688 2.070312 9.304688 3.609375 8.609375 4.609375 C 7.910156 5.617188 7.140625 6.375 6.296875 6.875 C 5.453125 7.375 4.5 7.625 3.4375 7.625 Z M 3.4375 7.625 "/></g></g></g><g fill="#142846" fill-opacity="1"><g transform="translate(637.118426, 198.654029)"><g><path d="M 20.984375 0 L 18.078125 -7.390625 L 6.546875 -7.390625 L 3.625 0 L 0.078125 0 L 10.40625 -25.265625 L 14.3125 -25.265625 L 24.484375 0 Z M 12.3125 -22.6875 L 12.15625 -22.171875 C 11.851562 -21.179688 11.410156 -19.910156 10.828125 -18.359375 L 7.578125 -10.0625 L 17.0625 -10.0625 L 13.8125 -18.390625 C 13.46875 -19.210938 13.128906 -20.144531 12.796875 -21.1875 Z M 12.3125 -22.6875 "/></g></g></g><g fill="#142846" fill-opacity="1"><g transform="translate(661.667162, 198.654029)"><g><path d="M 14.75 -3.125 C 14.15625 -1.875 13.363281 -0.976562 12.375 -0.4375 C 11.382812 0.09375 10.160156 0.359375 8.703125 0.359375 C 6.242188 0.359375 4.4375 -0.460938 3.28125 -2.109375 C 2.125 -3.765625 1.546875 -6.265625 1.546875 -9.609375 C 1.546875 -16.378906 3.929688 -19.765625 8.703125 -19.765625 C 10.171875 -19.765625 11.394531 -19.492188 12.375 -18.953125 C 13.363281 -18.410156 14.15625 -17.554688 14.75 -16.390625 L 14.796875 -16.390625 L 14.75 -18.5625 L 14.75 -26.609375 L 18 -26.609375 L 18 -4 C 18 -1.976562 18.03125 -0.644531 18.09375 0 L 15.015625 0 C 14.972656 -0.1875 14.929688 -0.625 14.890625 -1.3125 C 14.847656 -2.007812 14.828125 -2.613281 14.828125 -3.125 Z M 4.9375 -9.71875 C 4.9375 -7 5.296875 -5.054688 6.015625 -3.890625 C 6.734375 -2.722656 7.90625 -2.140625 9.53125 -2.140625 C 11.363281 -2.140625 12.691406 -2.769531 13.515625 -4.03125 C 14.335938 -5.300781 14.75 -7.269531 14.75 -9.9375 C 14.75 -12.5 14.335938 -14.378906 13.515625 -15.578125 C 12.691406 -16.773438 11.375 -17.375 9.5625 -17.375 C 7.9375 -17.375 6.757812 -16.769531 6.03125 -15.5625 C 5.300781 -14.363281 4.9375 -12.414062 4.9375 -9.71875 Z M 4.9375 -9.71875 "/></g></g></g><g fill="#142846" fill-opacity="1"><g transform="translate(682.136422, 198.654029)"><g><path d="M 11.015625 0 L 7.1875 0 L 0.125 -19.40625 L 3.578125 -19.40625 L 7.859375 -6.78125 C 8.015625 -6.300781 8.425781 -4.882812 9.09375 -2.53125 L 9.71875 -4.625 L 10.421875 -6.734375 L 14.84375 -19.40625 L 18.28125 -19.40625 Z M 11.015625 0 "/></g></g></g><g fill="#142846" fill-opacity="1"><g transform="translate(700.538988, 198.654029)"><g><path d="M 2.46875 -23.515625 L 2.46875 -26.609375 L 5.703125 -26.609375 L 5.703125 -23.515625 Z M 2.46875 0 L 2.46875 -19.40625 L 5.703125 -19.40625 L 5.703125 0 Z M 2.46875 0 "/></g></g></g><g fill="#142846" fill-opacity="1"><g transform="translate(708.715909, 198.654029)"><g><path d="M 17.078125 -5.359375 C 17.078125 -3.535156 16.382812 -2.125 15 -1.125 C 13.613281 -0.132812 11.675781 0.359375 9.1875 0.359375 C 6.757812 0.359375 4.890625 -0.0351562 3.578125 -0.828125 C 2.273438 -1.628906 1.425781 -2.867188 1.03125 -4.546875 L 3.875 -5.109375 C 4.15625 -4.066406 4.726562 -3.300781 5.59375 -2.8125 C 6.457031 -2.332031 7.65625 -2.09375 9.1875 -2.09375 C 10.820312 -2.09375 12.019531 -2.34375 12.78125 -2.84375 C 13.550781 -3.351562 13.9375 -4.109375 13.9375 -5.109375 C 13.9375 -5.867188 13.671875 -6.488281 13.140625 -6.96875 C 12.609375 -7.445312 11.757812 -7.84375 10.59375 -8.15625 L 8.265625 -8.765625 C 6.410156 -9.242188 5.085938 -9.710938 4.296875 -10.171875 C 3.515625 -10.628906 2.898438 -11.1875 2.453125 -11.84375 C 2.015625 -12.507812 1.796875 -13.316406 1.796875 -14.265625 C 1.796875 -16.035156 2.425781 -17.382812 3.6875 -18.3125 C 4.957031 -19.238281 6.800781 -19.703125 9.21875 -19.703125 C 11.363281 -19.703125 13.066406 -19.320312 14.328125 -18.5625 C 15.597656 -17.8125 16.398438 -16.609375 16.734375 -14.953125 L 13.828125 -14.59375 C 13.640625 -15.457031 13.15625 -16.117188 12.375 -16.578125 C 11.59375 -17.035156 10.539062 -17.265625 9.21875 -17.265625 C 7.757812 -17.265625 6.679688 -17.039062 5.984375 -16.59375 C 5.285156 -16.15625 4.9375 -15.488281 4.9375 -14.59375 C 4.9375 -14.039062 5.082031 -13.582031 5.375 -13.21875 C 5.664062 -12.863281 6.09375 -12.5625 6.65625 -12.3125 C 7.21875 -12.0625 8.398438 -11.71875 10.203125 -11.28125 C 11.921875 -10.84375 13.15625 -10.441406 13.90625 -10.078125 C 14.664062 -9.710938 15.265625 -9.3125 15.703125 -8.875 C 16.140625 -8.4375 16.476562 -7.925781 16.71875 -7.34375 C 16.957031 -6.757812 17.078125 -6.097656 17.078125 -5.359375 Z M 17.078125 -5.359375 "/></g></g></g><g fill="#142846" fill-opacity="1"><g transform="translate(727.118475, 198.654029)"><g><path d="M 18.921875 -9.71875 C 18.921875 -6.320312 18.171875 -3.789062 16.671875 -2.125 C 15.179688 -0.46875 13.007812 0.359375 10.15625 0.359375 C 7.3125 0.359375 5.164062 -0.503906 3.71875 -2.234375 C 2.269531 -3.960938 1.546875 -6.457031 1.546875 -9.71875 C 1.546875 -16.414062 4.453125 -19.765625 10.265625 -19.765625 C 13.234375 -19.765625 15.414062 -18.945312 16.8125 -17.3125 C 18.21875 -15.675781 18.921875 -13.144531 18.921875 -9.71875 Z M 15.53125 -9.71875 C 15.53125 -12.394531 15.128906 -14.335938 14.328125 -15.546875 C 13.535156 -16.765625 12.195312 -17.375 10.3125 -17.375 C 8.425781 -17.375 7.054688 -16.753906 6.203125 -15.515625 C 5.359375 -14.273438 4.9375 -12.34375 4.9375 -9.71875 C 4.9375 -7.15625 5.351562 -5.234375 6.1875 -3.953125 C 7.019531 -2.671875 8.332031 -2.03125 10.125 -2.03125 C 12.0625 -2.03125 13.445312 -2.648438 14.28125 -3.890625 C 15.113281 -5.128906 15.53125 -7.070312 15.53125 -9.71875 Z M 15.53125 -9.71875 "/></g></g></g><g fill="#142846" fill-opacity="1"><g transform="translate(747.587735, 198.654029)"><g><path d="M 2.546875 0 L 2.546875 -14.875 C 2.546875 -16.238281 2.507812 -17.75 2.4375 -19.40625 L 5.5 -19.40625 C 5.59375 -17.195312 5.640625 -15.875 5.640625 -15.4375 L 5.71875 -15.4375 C 6.226562 -17.09375 6.816406 -18.226562 7.484375 -18.84375 C 8.160156 -19.457031 9.109375 -19.765625 10.328125 -19.765625 C 10.765625 -19.765625 11.203125 -19.703125 11.640625 -19.578125 L 11.640625 -16.625 C 11.210938 -16.738281 10.640625 -16.796875 9.921875 -16.796875 C 8.578125 -16.796875 7.550781 -16.21875 6.84375 -15.0625 C 6.132812 -13.914062 5.78125 -12.265625 5.78125 -10.109375 L 5.78125 0 Z M 2.546875 0 "/></g></g></g><g fill="#142846" fill-opacity="1"><g transform="translate(759.844132, 198.654029)"><g><path d="M 3.4375 7.625 C 2.550781 7.625 1.804688 7.554688 1.203125 7.421875 L 1.203125 5 C 1.660156 5.070312 2.164062 5.109375 2.71875 5.109375 C 4.726562 5.109375 6.320312 3.632812 7.5 0.6875 L 7.796875 -0.09375 L 0.09375 -19.40625 L 3.546875 -19.40625 L 7.640625 -8.671875 C 7.703125 -8.503906 7.773438 -8.304688 7.859375 -8.078125 C 7.941406 -7.847656 8.207031 -7.066406 8.65625 -5.734375 C 9.113281 -4.410156 9.363281 -3.671875 9.40625 -3.515625 L 10.65625 -7.046875 L 14.921875 -19.40625 L 18.328125 -19.40625 L 10.859375 0 C 10.054688 2.070312 9.304688 3.609375 8.609375 4.609375 C 7.910156 5.617188 7.140625 6.375 6.296875 6.875 C 5.453125 7.375 4.5 7.625 3.4375 7.625 Z M 3.4375 7.625 "/></g></g></g><g fill="#142846" fill-opacity="1"><g transform="translate(778.246697, 198.654029)"><g/></g></g><g fill="#142846" fill-opacity="1"><g transform="translate(788.472342, 198.654029)"><g><path d="M 1.84375 -12.75 C 1.84375 -16.84375 2.945312 -20.015625 5.15625 -22.265625 C 7.363281 -24.515625 10.460938 -25.640625 14.453125 -25.640625 C 17.253906 -25.640625 19.53125 -25.164062 21.28125 -24.21875 C 23.03125 -23.28125 24.378906 -21.769531 25.328125 -19.6875 L 22.0625 -18.71875 C 21.34375 -20.15625 20.347656 -21.203125 19.078125 -21.859375 C 17.816406 -22.515625 16.242188 -22.84375 14.359375 -22.84375 C 11.429688 -22.84375 9.195312 -21.957031 7.65625 -20.1875 C 6.113281 -18.425781 5.34375 -15.945312 5.34375 -12.75 C 5.34375 -9.550781 6.160156 -7.03125 7.796875 -5.1875 C 9.441406 -3.34375 11.710938 -2.421875 14.609375 -2.421875 C 16.265625 -2.421875 17.804688 -2.671875 19.234375 -3.171875 C 20.671875 -3.671875 21.832031 -4.351562 22.71875 -5.21875 L 22.71875 -9.765625 L 15.15625 -9.765625 L 15.15625 -12.640625 L 25.890625 -12.640625 L 25.890625 -3.921875 C 24.546875 -2.554688 22.898438 -1.5 20.953125 -0.75 C 19.003906 -0.0078125 16.890625 0.359375 14.609375 0.359375 C 11.960938 0.359375 9.679688 -0.164062 7.765625 -1.21875 C 5.847656 -2.269531 4.378906 -3.785156 3.359375 -5.765625 C 2.347656 -7.742188 1.84375 -10.070312 1.84375 -12.75 Z M 1.84375 -12.75 "/></g></g></g><g fill="#142846" fill-opacity="1"><g transform="translate(817.100553, 198.654029)"><g><path d="M 2.546875 0 L 2.546875 -14.875 C 2.546875 -16.238281 2.507812 -17.75 2.4375 -19.40625 L 5.5 -19.40625 C 5.59375 -17.195312 5.640625 -15.875 5.640625 -15.4375 L 5.71875 -15.4375 C 6.226562 -17.09375 6.816406 -18.226562 7.484375 -18.84375 C 8.160156 -19.457031 9.109375 -19.765625 10.328125 -19.765625 C 10.765625 -19.765625 11.203125 -19.703125 11.640625 -19.578125 L 11.640625 -16.625 C 11.210938 -16.738281 10.640625 -16.796875 9.921875 -16.796875 C 8.578125 -16.796875 7.550781 -16.21875 6.84375 -15.0625 C 6.132812 -13.914062 5.78125 -12.265625 5.78125 -10.109375 L 5.78125 0 Z M 2.546875 0 "/></g></g></g><g fill="#142846" fill-opacity="1"><g transform="translate(829.356949, 198.654029)"><g><path d="M 18.921875 -9.71875 C 18.921875 -6.320312 18.171875 -3.789062 16.671875 -2.125 C 15.179688 -0.46875 13.007812 0.359375 10.15625 0.359375 C 7.3125 0.359375 5.164062 -0.503906 3.71875 -2.234375 C 2.269531 -3.960938 1.546875 -6.457031 1.546875 -9.71875 C 1.546875 -16.414062 4.453125 -19.765625 10.265625 -19.765625 C 13.234375 -19.765625 15.414062 -18.945312 16.8125 -17.3125 C 18.21875 -15.675781 18.921875 -13.144531 18.921875 -9.71875 Z M 15.53125 -9.71875 C 15.53125 -12.394531 15.128906 -14.335938 14.328125 -15.546875 C 13.535156 -16.765625 12.195312 -17.375 10.3125 -17.375 C 8.425781 -17.375 7.054688 -16.753906 6.203125 -15.515625 C 5.359375 -14.273438 4.9375 -12.34375 4.9375 -9.71875 C 4.9375 -7.15625 5.351562 -5.234375 6.1875 -3.953125 C 7.019531 -2.671875 8.332031 -2.03125 10.125 -2.03125 C 12.0625 -2.03125 13.445312 -2.648438 14.28125 -3.890625 C 15.113281 -5.128906 15.53125 -7.070312 15.53125 -9.71875 Z M 15.53125 -9.71875 "/></g></g></g><g fill="#142846" fill-opacity="1"><g transform="translate(849.826209, 198.654029)"><g><path d="M 5.640625 -19.40625 L 5.640625 -7.09375 C 5.640625 -5.820312 5.765625 -4.832031 6.015625 -4.125 C 6.273438 -3.414062 6.675781 -2.90625 7.21875 -2.59375 C 7.769531 -2.289062 8.582031 -2.140625 9.65625 -2.140625 C 11.207031 -2.140625 12.429688 -2.671875 13.328125 -3.734375 C 14.234375 -4.796875 14.6875 -6.269531 14.6875 -8.15625 L 14.6875 -19.40625 L 17.921875 -19.40625 L 17.921875 -4.140625 C 17.921875 -1.878906 17.957031 -0.5 18.03125 0 L 14.96875 0 C 14.957031 -0.0625 14.945312 -0.222656 14.9375 -0.484375 C 14.925781 -0.742188 14.910156 -1.046875 14.890625 -1.390625 C 14.867188 -1.734375 14.847656 -2.375 14.828125 -3.3125 L 14.78125 -3.3125 C 14.03125 -1.976562 13.164062 -1.03125 12.1875 -0.46875 C 11.21875 0.0820312 10.007812 0.359375 8.5625 0.359375 C 6.425781 0.359375 4.863281 -0.164062 3.875 -1.21875 C 2.882812 -2.28125 2.390625 -4.03125 2.390625 -6.46875 L 2.390625 -19.40625 Z M 5.640625 -19.40625 "/></g></g></g><g fill="#142846" fill-opacity="1"><g transform="translate(870.295469, 198.654029)"><g><path d="M 18.921875 -9.796875 C 18.921875 -3.023438 16.539062 0.359375 11.78125 0.359375 C 8.78125 0.359375 6.765625 -0.765625 5.734375 -3.015625 L 5.640625 -3.015625 C 5.691406 -2.921875 5.71875 -1.90625 5.71875 0.03125 L 5.71875 7.625 L 2.484375 7.625 L 2.484375 -15.4375 C 2.484375 -17.4375 2.445312 -18.757812 2.375 -19.40625 L 5.5 -19.40625 C 5.507812 -19.351562 5.523438 -19.179688 5.546875 -18.890625 C 5.578125 -18.597656 5.609375 -18.144531 5.640625 -17.53125 C 5.671875 -16.925781 5.6875 -16.507812 5.6875 -16.28125 L 5.75 -16.28125 C 6.320312 -17.476562 7.082031 -18.351562 8.03125 -18.90625 C 8.976562 -19.457031 10.226562 -19.734375 11.78125 -19.734375 C 14.175781 -19.734375 15.960938 -18.929688 17.140625 -17.328125 C 18.328125 -15.734375 18.921875 -13.222656 18.921875 -9.796875 Z M 15.53125 -9.71875 C 15.53125 -12.414062 15.164062 -14.34375 14.4375 -15.5 C 13.707031 -16.664062 12.546875 -17.25 10.953125 -17.25 C 9.660156 -17.25 8.648438 -16.976562 7.921875 -16.4375 C 7.203125 -15.90625 6.65625 -15.066406 6.28125 -13.921875 C 5.90625 -12.773438 5.71875 -11.289062 5.71875 -9.46875 C 5.71875 -6.914062 6.125 -5.035156 6.9375 -3.828125 C 7.75 -2.628906 9.070312 -2.03125 10.90625 -2.03125 C 12.507812 -2.03125 13.679688 -2.617188 14.421875 -3.796875 C 15.160156 -4.972656 15.53125 -6.945312 15.53125 -9.71875 Z M 15.53125 -9.71875 "/></g></g></g><g clip-path="url(#b25f9db1db)"><g clip-path="url(#c322870511)"><g clip-path="url(#901c3004c3)"><path fill="#1c2143" d="M 588.25 54.070312 C 584.433594 57.359375 581.195312 61.160156 578.488281 65.421875 C 573.308594 73.582031 570.171875 82.507812 568.609375 92.039062 C 566.417969 105.429688 567.257812 118.789062 568.4375 132.152344 C 569.324219 142.21875 570.679688 152.238281 570.339844 162.414062 C 569.976562 173.308594 569.066406 184.113281 565.6875 194.550781 C 560.714844 209.914062 552.191406 222.492188 537.824219 230.300781 C 536.445312 231.050781 534.988281 231.648438 533.539062 232.25 C 533.160156 232.402344 532.679688 232.296875 532.25 232.3125 C 532.214844 232.152344 532.183594 231.992188 532.148438 231.832031 C 532.589844 231.570312 533.015625 231.273438 533.476562 231.050781 C 545.058594 225.464844 552.804688 216.152344 558.074219 204.519531 C 563.632812 192.246094 564.921875 179.203125 564.574219 165.960938 C 564.234375 152.96875 563.578125 139.988281 563.132812 127 C 562.835938 118.261719 563.011719 109.511719 564.171875 100.824219 C 566.039062 86.863281 570.179688 73.738281 579.167969 62.640625 C 581.796875 59.398438 584.890625 56.550781 587.769531 53.519531 C 587.929688 53.703125 588.089844 53.886719 588.25 54.070312 Z M 588.25 54.070312 " fill-opacity="1" fill-rule="nonzero"/></g></g></g><g clip-path="url(#682de32d1c)"><g clip-path="url(#2310654cad)"><g clip-path="url(#8cc3d274a7)"><path fill="#1c2143" d="M 600.699219 52.117188 C 597.375 55.902344 594.695312 60.117188 592.609375 64.714844 C 588.613281 73.511719 586.746094 82.785156 586.523438 92.445312 C 586.210938 106.007812 588.902344 119.121094 591.925781 132.191406 C 594.199219 142.035156 596.933594 151.769531 598.011719 161.894531 C 599.164062 172.734375 599.765625 183.5625 597.867188 194.367188 C 595.078125 210.273438 588.382812 223.910156 575.242188 233.640625 C 573.980469 234.574219 572.617188 235.371094 571.265625 236.164062 C 570.914062 236.371094 570.425781 236.332031 570 236.40625 C 569.941406 236.253906 569.886719 236.097656 569.832031 235.945312 C 570.234375 235.625 570.613281 235.273438 571.039062 234.988281 C 581.730469 227.847656 588.109375 217.546875 591.710938 205.292969 C 595.511719 192.371094 594.976562 179.273438 592.792969 166.207031 C 590.652344 153.390625 588.199219 140.628906 585.957031 127.828125 C 584.449219 119.210938 583.40625 110.523438 583.347656 101.757812 C 583.257812 87.671875 585.535156 74.101562 592.898438 61.863281 C 595.046875 58.289062 597.714844 55.039062 600.144531 51.636719 C 600.332031 51.796875 600.515625 51.957031 600.699219 52.117188 Z M 600.699219 52.117188 " fill-opacity="1" fill-rule="nonzero"/></g></g></g></g></g></svg>