<svg xmlns="http://www.w3.org/2000/svg" xmlns:xlink="http://www.w3.org/1999/xlink" width="1600" zoomAndPan="magnify" viewBox="0 0 1200 374.999991" height="500" preserveAspectRatio="xMidYMid meet" version="1.0"><defs><g/><clipPath id="f9d7c16664"><path d="M 109.339844 51.207031 L 1093.339844 51.207031 L 1093.339844 324.957031 L 109.339844 324.957031 Z M 109.339844 51.207031 " clip-rule="nonzero"/></clipPath><clipPath id="79075bb0ca"><path d="M 613 100 L 667 100 L 667 272 L 613 272 Z M 613 100 " clip-rule="nonzero"/></clipPath><clipPath id="1b9078d48e"><path d="M 613.382812 271.203125 L 653.742188 98.09375 L 676.382812 103.371094 L 636.023438 276.480469 Z M 613.382812 271.203125 " clip-rule="nonzero"/></clipPath><clipPath id="9d1f87c016"><path d="M 613.382812 271.203125 L 653.742188 98.09375 L 676.382812 103.371094 L 636.023438 276.480469 Z M 613.382812 271.203125 " clip-rule="nonzero"/></clipPath><clipPath id="6e5af7bd77"><path d="M 649 98 L 679 98 L 679 276 L 649 276 Z M 649 98 " clip-rule="nonzero"/></clipPath><clipPath id="fa3c1ff195"><path d="M 649.378906 275.136719 L 665.300781 98.101562 L 688.460938 100.183594 L 672.535156 277.21875 Z M 649.378906 275.136719 " clip-rule="nonzero"/></clipPath><clipPath id="862a387060"><path d="M 649.378906 275.136719 L 665.300781 98.101562 L 688.460938 100.183594 L 672.535156 277.21875 Z M 649.378906 275.136719 " clip-rule="nonzero"/></clipPath></defs><g clip-path="url(#f9d7c16664)"><path fill="#142846" d="M 109.34375 51.207031 L 1093.335938 51.207031 L 1093.335938 324.957031 L 109.34375 324.957031 Z M 109.34375 51.207031 " fill-opacity="1" fill-rule="nonzero"/></g><g fill="#ffffff" fill-opacity="1"><g transform="translate(188.690301, 218.457066)"><g><path d="M 84.46875 -39.90625 C 84.46875 -31.675781 82.84375 -24.4375 79.59375 -18.1875 C 76.34375 -11.9375 71.691406 -7.15625 65.640625 -3.84375 C 59.585938 -0.53125 52.523438 1.125 44.453125 1.125 C 32.046875 1.125 22.316406 -2.53125 15.265625 -9.84375 C 8.222656 -17.164062 4.703125 -27.1875 4.703125 -39.90625 C 4.703125 -52.59375 8.210938 -62.492188 15.234375 -69.609375 C 22.265625 -76.722656 32.039062 -80.28125 44.5625 -80.28125 C 57.082031 -80.28125 66.863281 -76.6875 73.90625 -69.5 C 80.945312 -62.3125 84.46875 -52.445312 84.46875 -39.90625 Z M 67.59375 -39.90625 C 67.59375 -48.445312 65.578125 -55.140625 61.546875 -59.984375 C 57.515625 -64.828125 51.851562 -67.25 44.5625 -67.25 C 37.164062 -67.25 31.445312 -64.84375 27.40625 -60.03125 C 23.375 -55.226562 21.359375 -48.519531 21.359375 -39.90625 C 21.359375 -31.226562 23.421875 -24.390625 27.546875 -19.390625 C 31.679688 -14.398438 37.316406 -11.90625 44.453125 -11.90625 C 51.847656 -11.90625 57.550781 -14.335938 61.5625 -19.203125 C 65.582031 -24.066406 67.59375 -30.96875 67.59375 -39.90625 Z M 67.59375 -39.90625 "/></g></g></g><g fill="#ffffff" fill-opacity="1"><g transform="translate(277.980559, 218.457066)"><g><path d="M 61.9375 0 L 43.609375 -30.03125 L 24.21875 -30.03125 L 24.21875 0 L 7.671875 0 L 7.671875 -79.09375 L 47.140625 -79.09375 C 56.554688 -79.09375 63.820312 -77.0625 68.9375 -73 C 74.0625 -68.945312 76.625 -63.117188 76.625 -55.515625 C 76.625 -49.984375 75.050781 -45.203125 71.90625 -41.171875 C 68.769531 -37.148438 64.53125 -34.503906 59.1875 -33.234375 L 80.546875 0 Z M 59.984375 -54.84375 C 59.984375 -62.4375 55.125 -66.234375 45.40625 -66.234375 L 24.21875 -66.234375 L 24.21875 -42.890625 L 45.84375 -42.890625 C 50.476562 -42.890625 53.992188 -43.9375 56.390625 -46.03125 C 58.785156 -48.125 59.984375 -51.0625 59.984375 -54.84375 Z M 59.984375 -54.84375 "/></g></g></g><g fill="#ffffff" fill-opacity="1"><g transform="translate(360.88093, 218.457066)"><g><path d="M 43.328125 -66.296875 L 43.328125 0 L 26.796875 0 L 26.796875 -66.296875 L 1.296875 -66.296875 L 1.296875 -79.09375 L 68.890625 -79.09375 L 68.890625 -66.296875 Z M 43.328125 -66.296875 "/></g></g></g><g fill="#ffffff" fill-opacity="1"><g transform="translate(422.481636, 218.457066)"><g><path d="M 63.515625 0 L 56.5 -20.203125 L 26.40625 -20.203125 L 19.390625 0 L 2.859375 0 L 31.671875 -79.09375 L 51.171875 -79.09375 L 79.875 0 Z M 41.421875 -66.921875 L 41.09375 -65.6875 C 40.71875 -64.332031 40.265625 -62.796875 39.734375 -61.078125 C 39.210938 -59.359375 36 -49.890625 30.09375 -32.671875 L 52.796875 -32.671875 L 45.015625 -55.40625 L 42.59375 -63.046875 Z M 41.421875 -66.921875 "/></g></g></g><g fill="#ffffff" fill-opacity="1"><g transform="translate(505.382018, 218.457066)"><g><path d="M 45.171875 -11.84375 C 49.472656 -11.84375 53.640625 -12.46875 57.671875 -13.71875 C 61.710938 -14.976562 64.835938 -16.582031 67.046875 -18.53125 L 67.046875 -29.46875 L 47.75 -29.46875 L 47.75 -41.703125 L 82.171875 -41.703125 L 82.171875 -12.625 C 77.984375 -8.320312 72.535156 -4.953125 65.828125 -2.515625 C 59.117188 -0.0859375 52.085938 1.125 44.734375 1.125 C 31.878906 1.125 21.992188 -2.4375 15.078125 -9.5625 C 8.160156 -16.695312 4.703125 -26.8125 4.703125 -39.90625 C 4.703125 -52.9375 8.175781 -62.921875 15.125 -69.859375 C 22.082031 -76.804688 32.082031 -80.28125 45.125 -80.28125 C 63.65625 -80.28125 75.445312 -73.410156 80.5 -59.671875 L 65.25 -55.078125 C 63.601562 -59.078125 61.019531 -62.101562 57.5 -64.15625 C 53.988281 -66.21875 49.863281 -67.25 45.125 -67.25 C 37.351562 -67.25 31.445312 -64.890625 27.40625 -60.171875 C 23.375 -55.460938 21.359375 -48.707031 21.359375 -39.90625 C 21.359375 -30.96875 23.441406 -24.054688 27.609375 -19.171875 C 31.773438 -14.285156 37.628906 -11.84375 45.171875 -11.84375 Z M 45.171875 -11.84375 "/></g></g></g><g fill="#ffffff" fill-opacity="1"><g transform="translate(714.499312, 154.630564)"><g><path d="M 25.53125 -12.15625 C 25.53125 -9.632812 25.050781 -7.425781 24.09375 -5.53125 C 23.132812 -3.644531 21.753906 -2.191406 19.953125 -1.171875 C 18.148438 -0.160156 16.023438 0.34375 13.578125 0.34375 C 11.109375 0.34375 8.976562 -0.15625 7.1875 -1.15625 C 5.394531 -2.164062 4.023438 -3.617188 3.078125 -5.515625 C 2.128906 -7.410156 1.65625 -9.625 1.65625 -12.15625 C 1.65625 -16.007812 2.707031 -19.019531 4.8125 -21.1875 C 6.925781 -23.363281 9.859375 -24.453125 13.609375 -24.453125 C 16.054688 -24.453125 18.179688 -23.960938 19.984375 -22.984375 C 21.785156 -22.015625 23.160156 -20.597656 24.109375 -18.734375 C 25.054688 -16.878906 25.53125 -14.6875 25.53125 -12.15625 Z M 22.203125 -12.15625 C 22.203125 -15.15625 21.453125 -17.507812 19.953125 -19.21875 C 18.460938 -20.9375 16.347656 -21.796875 13.609375 -21.796875 C 10.859375 -21.796875 8.726562 -20.953125 7.21875 -19.265625 C 5.71875 -17.578125 4.96875 -15.207031 4.96875 -12.15625 C 4.96875 -9.132812 5.726562 -6.738281 7.25 -4.96875 C 8.769531 -3.195312 10.878906 -2.3125 13.578125 -2.3125 C 16.359375 -2.3125 18.488281 -3.164062 19.96875 -4.875 C 21.457031 -6.59375 22.203125 -9.019531 22.203125 -12.15625 Z M 22.203125 -12.15625 "/></g></g></g><g fill="#ffffff" fill-opacity="1"><g transform="translate(741.708281, 154.630564)"><g><path d="M 5.421875 -15.34375 C 6.078125 -16.550781 6.867188 -17.4375 7.796875 -18 C 8.722656 -18.5625 9.898438 -18.84375 11.328125 -18.84375 C 13.328125 -18.84375 14.800781 -18.34375 15.75 -17.34375 C 16.707031 -16.351562 17.1875 -14.679688 17.1875 -12.328125 L 17.1875 0 L 14.09375 0 L 14.09375 -11.734375 C 14.09375 -13.035156 13.972656 -14 13.734375 -14.625 C 13.492188 -15.257812 13.097656 -15.722656 12.546875 -16.015625 C 12.003906 -16.316406 11.25 -16.46875 10.28125 -16.46875 C 8.832031 -16.46875 7.671875 -15.96875 6.796875 -14.96875 C 5.929688 -13.96875 5.5 -12.613281 5.5 -10.90625 L 5.5 0 L 2.421875 0 L 2.421875 -25.390625 L 5.5 -25.390625 L 5.5 -18.78125 C 5.5 -18.082031 5.476562 -17.363281 5.4375 -16.625 C 5.394531 -15.882812 5.367188 -15.457031 5.359375 -15.34375 Z M 5.421875 -15.34375 "/></g></g></g><g fill="#ffffff" fill-opacity="1"><g transform="translate(761.16278, 154.630564)"><g><path d="M 2.34375 -22.4375 L 2.34375 -25.390625 L 5.421875 -25.390625 L 5.421875 -22.4375 Z M 2.34375 0 L 2.34375 -18.5 L 5.421875 -18.5 L 5.421875 0 Z M 2.34375 0 "/></g></g></g><g fill="#ffffff" fill-opacity="1"><g transform="translate(768.934331, 154.630564)"><g><path d="M 17.984375 -9.265625 C 17.984375 -6.023438 17.269531 -3.613281 15.84375 -2.03125 C 14.425781 -0.445312 12.363281 0.34375 9.65625 0.34375 C 6.957031 0.34375 4.914062 -0.476562 3.53125 -2.125 C 2.15625 -3.769531 1.46875 -6.148438 1.46875 -9.265625 C 1.46875 -15.648438 4.226562 -18.84375 9.75 -18.84375 C 12.570312 -18.84375 14.648438 -18.066406 15.984375 -16.515625 C 17.316406 -14.960938 17.984375 -12.546875 17.984375 -9.265625 Z M 14.765625 -9.265625 C 14.765625 -11.828125 14.382812 -13.6875 13.625 -14.84375 C 12.863281 -16 11.59375 -16.578125 9.8125 -16.578125 C 8.007812 -16.578125 6.707031 -15.984375 5.90625 -14.796875 C 5.101562 -13.617188 4.703125 -11.773438 4.703125 -9.265625 C 4.703125 -6.828125 5.097656 -4.992188 5.890625 -3.765625 C 6.679688 -2.546875 7.925781 -1.9375 9.625 -1.9375 C 11.46875 -1.9375 12.785156 -2.523438 13.578125 -3.703125 C 14.367188 -4.890625 14.765625 -6.742188 14.765625 -9.265625 Z M 14.765625 -9.265625 "/></g></g></g><g fill="#ffffff" fill-opacity="1"><g transform="translate(788.38883, 154.630564)"><g/></g></g><g fill="#ffffff" fill-opacity="1"><g transform="translate(798.107539, 154.630564)"><g><path d="M 19.890625 0 L 13.625 -10 L 6.125 -10 L 6.125 0 L 2.875 0 L 2.875 -24.09375 L 14.203125 -24.09375 C 16.910156 -24.09375 19 -23.484375 20.46875 -22.265625 C 21.945312 -21.054688 22.6875 -19.367188 22.6875 -17.203125 C 22.6875 -15.410156 22.164062 -13.90625 21.125 -12.6875 C 20.082031 -11.46875 18.644531 -10.695312 16.8125 -10.375 L 23.640625 0 Z M 19.40625 -17.171875 C 19.40625 -18.578125 18.925781 -19.644531 17.96875 -20.375 C 17.019531 -21.113281 15.65625 -21.484375 13.875 -21.484375 L 6.125 -21.484375 L 6.125 -12.59375 L 14 -12.59375 C 15.726562 -12.59375 17.0625 -12.992188 18 -13.796875 C 18.9375 -14.597656 19.40625 -15.722656 19.40625 -17.171875 Z M 19.40625 -17.171875 "/></g></g></g><g fill="#ffffff" fill-opacity="1"><g transform="translate(823.369351, 154.630564)"><g><path d="M 2.34375 -22.4375 L 2.34375 -25.390625 L 5.421875 -25.390625 L 5.421875 -22.4375 Z M 2.34375 0 L 2.34375 -18.5 L 5.421875 -18.5 L 5.421875 0 Z M 2.34375 0 "/></g></g></g><g fill="#ffffff" fill-opacity="1"><g transform="translate(831.140902, 154.630564)"><g><path d="M 10.46875 0 L 6.828125 0 L 0.125 -18.5 L 3.40625 -18.5 L 7.46875 -6.46875 C 7.613281 -6.007812 8.003906 -4.65625 8.640625 -2.40625 L 9.234375 -4.40625 L 9.90625 -6.4375 L 14.109375 -18.5 L 17.375 -18.5 Z M 10.46875 0 "/></g></g></g><g fill="#ffffff" fill-opacity="1"><g transform="translate(848.631162, 154.630564)"><g><path d="M 4.71875 -8.609375 C 4.71875 -6.484375 5.15625 -4.84375 6.03125 -3.6875 C 6.90625 -2.539062 8.1875 -1.96875 9.875 -1.96875 C 11.207031 -1.96875 12.273438 -2.234375 13.078125 -2.765625 C 13.878906 -3.304688 14.421875 -3.988281 14.703125 -4.8125 L 17.40625 -4.03125 C 16.300781 -1.113281 13.789062 0.34375 9.875 0.34375 C 7.144531 0.34375 5.0625 -0.46875 3.625 -2.09375 C 2.195312 -3.726562 1.484375 -6.15625 1.484375 -9.375 C 1.484375 -12.425781 2.195312 -14.765625 3.625 -16.390625 C 5.0625 -18.023438 7.101562 -18.84375 9.75 -18.84375 C 15.1875 -18.84375 17.90625 -15.566406 17.90625 -9.015625 L 17.90625 -8.609375 Z M 14.71875 -10.96875 C 14.550781 -12.914062 14.054688 -14.335938 13.234375 -15.234375 C 12.421875 -16.128906 11.242188 -16.578125 9.703125 -16.578125 C 8.210938 -16.578125 7.03125 -16.078125 6.15625 -15.078125 C 5.28125 -14.078125 4.8125 -12.707031 4.75 -10.96875 Z M 14.71875 -10.96875 "/></g></g></g><g fill="#ffffff" fill-opacity="1"><g transform="translate(868.085661, 154.630564)"><g><path d="M 2.421875 0 L 2.421875 -14.203125 C 2.421875 -15.492188 2.390625 -16.925781 2.328125 -18.5 L 5.234375 -18.5 C 5.316406 -16.40625 5.359375 -15.148438 5.359375 -14.734375 L 5.4375 -14.734375 C 5.925781 -16.316406 6.488281 -17.394531 7.125 -17.96875 C 7.757812 -18.550781 8.660156 -18.84375 9.828125 -18.84375 C 10.234375 -18.84375 10.644531 -18.785156 11.0625 -18.671875 L 11.0625 -15.859375 C 10.65625 -15.972656 10.109375 -16.03125 9.421875 -16.03125 C 8.148438 -16.03125 7.175781 -15.476562 6.5 -14.375 C 5.832031 -13.269531 5.5 -11.691406 5.5 -9.640625 L 5.5 0 Z M 2.421875 0 "/></g></g></g><g fill="#ffffff" fill-opacity="1"><g transform="translate(714.499312, 197.338004)"><g><path d="M 12.296875 -21.4375 L 12.296875 0 L 9.046875 0 L 9.046875 -21.4375 L 0.78125 -21.4375 L 0.78125 -24.09375 L 20.5625 -24.09375 L 20.5625 -21.4375 Z M 12.296875 -21.4375 "/></g></g></g><g fill="#ffffff" fill-opacity="1"><g transform="translate(731.989263, 197.338004)"><g><path d="M 4.71875 -8.609375 C 4.71875 -6.484375 5.15625 -4.84375 6.03125 -3.6875 C 6.90625 -2.539062 8.1875 -1.96875 9.875 -1.96875 C 11.207031 -1.96875 12.273438 -2.234375 13.078125 -2.765625 C 13.878906 -3.304688 14.421875 -3.988281 14.703125 -4.8125 L 17.40625 -4.03125 C 16.300781 -1.113281 13.789062 0.34375 9.875 0.34375 C 7.144531 0.34375 5.0625 -0.46875 3.625 -2.09375 C 2.195312 -3.726562 1.484375 -6.15625 1.484375 -9.375 C 1.484375 -12.425781 2.195312 -14.765625 3.625 -16.390625 C 5.0625 -18.023438 7.101562 -18.84375 9.75 -18.84375 C 15.1875 -18.84375 17.90625 -15.566406 17.90625 -9.015625 L 17.90625 -8.609375 Z M 14.71875 -10.96875 C 14.550781 -12.914062 14.054688 -14.335938 13.234375 -15.234375 C 12.421875 -16.128906 11.242188 -16.578125 9.703125 -16.578125 C 8.210938 -16.578125 7.03125 -16.078125 6.15625 -15.078125 C 5.28125 -14.078125 4.8125 -12.707031 4.75 -10.96875 Z M 14.71875 -10.96875 "/></g></g></g><g fill="#ffffff" fill-opacity="1"><g transform="translate(751.443762, 197.338004)"><g><path d="M 4.703125 -9.34375 C 4.703125 -6.875 5.085938 -5.046875 5.859375 -3.859375 C 6.628906 -2.679688 7.796875 -2.09375 9.359375 -2.09375 C 10.453125 -2.09375 11.363281 -2.382812 12.09375 -2.96875 C 12.832031 -3.5625 13.285156 -4.476562 13.453125 -5.71875 L 16.5625 -5.515625 C 16.332031 -3.734375 15.578125 -2.3125 14.296875 -1.25 C 13.023438 -0.1875 11.410156 0.34375 9.453125 0.34375 C 6.859375 0.34375 4.878906 -0.472656 3.515625 -2.109375 C 2.160156 -3.742188 1.484375 -6.128906 1.484375 -9.265625 C 1.484375 -12.378906 2.164062 -14.753906 3.53125 -16.390625 C 4.894531 -18.023438 6.851562 -18.84375 9.40625 -18.84375 C 11.300781 -18.84375 12.867188 -18.351562 14.109375 -17.375 C 15.359375 -16.394531 16.144531 -15.046875 16.46875 -13.328125 L 13.3125 -13.078125 C 13.144531 -14.109375 12.738281 -14.925781 12.09375 -15.53125 C 11.445312 -16.132812 10.523438 -16.4375 9.328125 -16.4375 C 7.703125 -16.4375 6.523438 -15.894531 5.796875 -14.8125 C 5.066406 -13.726562 4.703125 -11.90625 4.703125 -9.34375 Z M 4.703125 -9.34375 "/></g></g></g><g fill="#ffffff" fill-opacity="1"><g transform="translate(768.934022, 197.338004)"><g><path d="M 5.421875 -15.34375 C 6.078125 -16.550781 6.867188 -17.4375 7.796875 -18 C 8.722656 -18.5625 9.898438 -18.84375 11.328125 -18.84375 C 13.328125 -18.84375 14.800781 -18.34375 15.75 -17.34375 C 16.707031 -16.351562 17.1875 -14.679688 17.1875 -12.328125 L 17.1875 0 L 14.09375 0 L 14.09375 -11.734375 C 14.09375 -13.035156 13.972656 -14 13.734375 -14.625 C 13.492188 -15.257812 13.097656 -15.722656 12.546875 -16.015625 C 12.003906 -16.316406 11.25 -16.46875 10.28125 -16.46875 C 8.832031 -16.46875 7.671875 -15.96875 6.796875 -14.96875 C 5.929688 -13.96875 5.5 -12.613281 5.5 -10.90625 L 5.5 0 L 2.421875 0 L 2.421875 -25.390625 L 5.5 -25.390625 L 5.5 -18.78125 C 5.5 -18.082031 5.476562 -17.363281 5.4375 -16.625 C 5.394531 -15.882812 5.367188 -15.457031 5.359375 -15.34375 Z M 5.421875 -15.34375 "/></g></g></g><g fill="#ffffff" fill-opacity="1"><g transform="translate(788.388521, 197.338004)"><g><path d="M 14.09375 0 L 14.09375 -11.734375 C 14.09375 -12.953125 13.972656 -13.894531 13.734375 -14.5625 C 13.492188 -15.238281 13.109375 -15.722656 12.578125 -16.015625 C 12.054688 -16.316406 11.289062 -16.46875 10.28125 -16.46875 C 8.800781 -16.46875 7.632812 -15.957031 6.78125 -14.9375 C 5.925781 -13.925781 5.5 -12.519531 5.5 -10.71875 L 5.5 0 L 2.421875 0 L 2.421875 -14.5625 C 2.421875 -16.71875 2.390625 -18.03125 2.328125 -18.5 L 5.234375 -18.5 C 5.242188 -18.445312 5.253906 -18.296875 5.265625 -18.046875 C 5.273438 -17.796875 5.285156 -17.503906 5.296875 -17.171875 C 5.316406 -16.847656 5.335938 -16.238281 5.359375 -15.34375 L 5.421875 -15.34375 C 6.117188 -16.625 6.929688 -17.523438 7.859375 -18.046875 C 8.796875 -18.578125 9.953125 -18.84375 11.328125 -18.84375 C 13.347656 -18.84375 14.828125 -18.335938 15.765625 -17.328125 C 16.710938 -16.328125 17.1875 -14.660156 17.1875 -12.328125 L 17.1875 0 Z M 14.09375 0 "/></g></g></g><g fill="#ffffff" fill-opacity="1"><g transform="translate(807.84302, 197.338004)"><g><path d="M 17.984375 -9.265625 C 17.984375 -6.023438 17.269531 -3.613281 15.84375 -2.03125 C 14.425781 -0.445312 12.363281 0.34375 9.65625 0.34375 C 6.957031 0.34375 4.914062 -0.476562 3.53125 -2.125 C 2.15625 -3.769531 1.46875 -6.148438 1.46875 -9.265625 C 1.46875 -15.648438 4.226562 -18.84375 9.75 -18.84375 C 12.570312 -18.84375 14.648438 -18.066406 15.984375 -16.515625 C 17.316406 -14.960938 17.984375 -12.546875 17.984375 -9.265625 Z M 14.765625 -9.265625 C 14.765625 -11.828125 14.382812 -13.6875 13.625 -14.84375 C 12.863281 -16 11.59375 -16.578125 9.8125 -16.578125 C 8.007812 -16.578125 6.707031 -15.984375 5.90625 -14.796875 C 5.101562 -13.617188 4.703125 -11.773438 4.703125 -9.265625 C 4.703125 -6.828125 5.097656 -4.992188 5.890625 -3.765625 C 6.679688 -2.546875 7.925781 -1.9375 9.625 -1.9375 C 11.46875 -1.9375 12.785156 -2.523438 13.578125 -3.703125 C 14.367188 -4.890625 14.765625 -6.742188 14.765625 -9.265625 Z M 14.765625 -9.265625 "/></g></g></g><g fill="#ffffff" fill-opacity="1"><g transform="translate(827.297519, 197.338004)"><g><path d="M 2.359375 0 L 2.359375 -25.390625 L 5.4375 -25.390625 L 5.4375 0 Z M 2.359375 0 "/></g></g></g><g fill="#ffffff" fill-opacity="1"><g transform="translate(835.06907, 197.338004)"><g><path d="M 17.984375 -9.265625 C 17.984375 -6.023438 17.269531 -3.613281 15.84375 -2.03125 C 14.425781 -0.445312 12.363281 0.34375 9.65625 0.34375 C 6.957031 0.34375 4.914062 -0.476562 3.53125 -2.125 C 2.15625 -3.769531 1.46875 -6.148438 1.46875 -9.265625 C 1.46875 -15.648438 4.226562 -18.84375 9.75 -18.84375 C 12.570312 -18.84375 14.648438 -18.066406 15.984375 -16.515625 C 17.316406 -14.960938 17.984375 -12.546875 17.984375 -9.265625 Z M 14.765625 -9.265625 C 14.765625 -11.828125 14.382812 -13.6875 13.625 -14.84375 C 12.863281 -16 11.59375 -16.578125 9.8125 -16.578125 C 8.007812 -16.578125 6.707031 -15.984375 5.90625 -14.796875 C 5.101562 -13.617188 4.703125 -11.773438 4.703125 -9.265625 C 4.703125 -6.828125 5.097656 -4.992188 5.890625 -3.765625 C 6.679688 -2.546875 7.925781 -1.9375 9.625 -1.9375 C 11.46875 -1.9375 12.785156 -2.523438 13.578125 -3.703125 C 14.367188 -4.890625 14.765625 -6.742188 14.765625 -9.265625 Z M 14.765625 -9.265625 "/></g></g></g><g fill="#ffffff" fill-opacity="1"><g transform="translate(854.523569, 197.338004)"><g><path d="M 9.359375 7.265625 C 7.347656 7.265625 5.742188 6.867188 4.546875 6.078125 C 3.347656 5.285156 2.578125 4.160156 2.234375 2.703125 L 5.328125 2.265625 C 5.535156 3.117188 5.988281 3.773438 6.6875 4.234375 C 7.382812 4.691406 8.304688 4.921875 9.453125 4.921875 C 12.515625 4.921875 14.046875 3.125 14.046875 -0.46875 L 14.046875 -3.4375 L 14 -3.4375 C 13.425781 -2.25 12.628906 -1.351562 11.609375 -0.75 C 10.597656 -0.15625 9.414062 0.140625 8.0625 0.140625 C 5.789062 0.140625 4.125 -0.609375 3.0625 -2.109375 C 2 -3.617188 1.46875 -5.988281 1.46875 -9.21875 C 1.46875 -12.488281 2.039062 -14.898438 3.1875 -16.453125 C 4.332031 -18.015625 6.070312 -18.796875 8.40625 -18.796875 C 9.71875 -18.796875 10.851562 -18.492188 11.8125 -17.890625 C 12.769531 -17.296875 13.515625 -16.445312 14.046875 -15.34375 L 14.078125 -15.34375 C 14.078125 -15.6875 14.097656 -16.28125 14.140625 -17.125 C 14.191406 -17.96875 14.238281 -18.425781 14.28125 -18.5 L 17.203125 -18.5 C 17.128906 -17.882812 17.09375 -16.609375 17.09375 -14.671875 L 17.09375 -0.53125 C 17.09375 4.664062 14.515625 7.265625 9.359375 7.265625 Z M 14.046875 -9.25 C 14.046875 -10.757812 13.835938 -12.054688 13.421875 -13.140625 C 13.015625 -14.234375 12.4375 -15.066406 11.6875 -15.640625 C 10.945312 -16.210938 10.101562 -16.5 9.15625 -16.5 C 7.582031 -16.5 6.4375 -15.925781 5.71875 -14.78125 C 5 -13.644531 4.640625 -11.800781 4.640625 -9.25 C 4.640625 -6.71875 4.972656 -4.898438 5.640625 -3.796875 C 6.316406 -2.691406 7.472656 -2.140625 9.109375 -2.140625 C 10.078125 -2.140625 10.9375 -2.421875 11.6875 -2.984375 C 12.4375 -3.554688 13.015625 -4.375 13.421875 -5.4375 C 13.835938 -6.507812 14.046875 -7.78125 14.046875 -9.25 Z M 14.046875 -9.25 "/></g></g></g><g fill="#ffffff" fill-opacity="1"><g transform="translate(873.978067, 197.338004)"><g><path d="M 3.265625 7.265625 C 2.421875 7.265625 1.710938 7.203125 1.140625 7.078125 L 1.140625 4.765625 C 1.578125 4.835938 2.054688 4.875 2.578125 4.875 C 4.492188 4.875 6.007812 3.46875 7.125 0.65625 L 7.40625 -0.078125 L 0.078125 -18.5 L 3.359375 -18.5 L 7.265625 -8.28125 C 7.316406 -8.125 7.378906 -7.929688 7.453125 -7.703125 C 7.535156 -7.484375 7.789062 -6.738281 8.21875 -5.46875 C 8.65625 -4.207031 8.894531 -3.503906 8.9375 -3.359375 L 10.125 -6.71875 L 14.171875 -18.5 L 17.421875 -18.5 L 10.3125 0 C 9.550781 1.96875 8.835938 3.429688 8.171875 4.390625 C 7.515625 5.359375 6.785156 6.078125 5.984375 6.546875 C 5.179688 7.023438 4.273438 7.265625 3.265625 7.265625 Z M 3.265625 7.265625 "/></g></g></g><g fill="#ffffff" fill-opacity="1"><g transform="translate(714.499312, 240.033703)"><g><path d="M 19.9375 0 L 17.1875 -7.046875 L 6.21875 -7.046875 L 3.453125 0 L 0.0625 0 L 9.890625 -24.09375 L 13.59375 -24.09375 L 23.265625 0 Z M 11.703125 -21.640625 L 11.546875 -21.15625 C 11.265625 -20.207031 10.84375 -18.992188 10.28125 -17.515625 L 7.203125 -9.59375 L 16.21875 -9.59375 L 13.125 -17.546875 C 12.800781 -18.335938 12.476562 -19.226562 12.15625 -20.21875 Z M 11.703125 -21.640625 "/></g></g></g><g fill="#ffffff" fill-opacity="1"><g transform="translate(737.831045, 240.033703)"><g><path d="M 14.03125 -2.96875 C 13.457031 -1.789062 12.703125 -0.941406 11.765625 -0.421875 C 10.828125 0.0859375 9.660156 0.34375 8.265625 0.34375 C 5.929688 0.34375 4.210938 -0.441406 3.109375 -2.015625 C 2.015625 -3.585938 1.46875 -5.972656 1.46875 -9.171875 C 1.46875 -15.617188 3.734375 -18.84375 8.265625 -18.84375 C 9.671875 -18.84375 10.835938 -18.585938 11.765625 -18.078125 C 12.703125 -17.566406 13.457031 -16.753906 14.03125 -15.640625 L 14.0625 -15.640625 L 14.03125 -17.703125 L 14.03125 -25.390625 L 17.09375 -25.390625 L 17.09375 -3.8125 C 17.09375 -1.882812 17.128906 -0.613281 17.203125 0 L 14.265625 0 C 14.234375 -0.1875 14.195312 -0.609375 14.15625 -1.265625 C 14.113281 -1.929688 14.09375 -2.5 14.09375 -2.96875 Z M 4.703125 -9.265625 C 4.703125 -6.679688 5.039062 -4.828125 5.71875 -3.703125 C 6.40625 -2.585938 7.515625 -2.03125 9.046875 -2.03125 C 10.796875 -2.03125 12.0625 -2.632812 12.84375 -3.84375 C 13.632812 -5.050781 14.03125 -6.925781 14.03125 -9.46875 C 14.03125 -11.925781 13.632812 -13.722656 12.84375 -14.859375 C 12.0625 -16.003906 10.8125 -16.578125 9.09375 -16.578125 C 7.539062 -16.578125 6.421875 -16.003906 5.734375 -14.859375 C 5.046875 -13.710938 4.703125 -11.847656 4.703125 -9.265625 Z M 4.703125 -9.265625 "/></g></g></g><g fill="#ffffff" fill-opacity="1"><g transform="translate(757.285544, 240.033703)"><g><path d="M 10.46875 0 L 6.828125 0 L 0.125 -18.5 L 3.40625 -18.5 L 7.46875 -6.46875 C 7.613281 -6.007812 8.003906 -4.65625 8.640625 -2.40625 L 9.234375 -4.40625 L 9.90625 -6.4375 L 14.109375 -18.5 L 17.375 -18.5 Z M 10.46875 0 "/></g></g></g><g fill="#ffffff" fill-opacity="1"><g transform="translate(774.775805, 240.033703)"><g><path d="M 2.34375 -22.4375 L 2.34375 -25.390625 L 5.421875 -25.390625 L 5.421875 -22.4375 Z M 2.34375 0 L 2.34375 -18.5 L 5.421875 -18.5 L 5.421875 0 Z M 2.34375 0 "/></g></g></g><g fill="#ffffff" fill-opacity="1"><g transform="translate(782.547356, 240.033703)"><g><path d="M 16.234375 -5.109375 C 16.234375 -3.367188 15.570312 -2.023438 14.25 -1.078125 C 12.9375 -0.128906 11.097656 0.34375 8.734375 0.34375 C 6.429688 0.34375 4.65625 -0.0351562 3.40625 -0.796875 C 2.15625 -1.554688 1.34375 -2.738281 0.96875 -4.34375 L 3.6875 -4.875 C 3.945312 -3.882812 4.488281 -3.15625 5.3125 -2.6875 C 6.132812 -2.226562 7.273438 -2 8.734375 -2 C 10.285156 -2 11.421875 -2.238281 12.140625 -2.71875 C 12.867188 -3.195312 13.234375 -3.914062 13.234375 -4.875 C 13.234375 -5.601562 12.984375 -6.195312 12.484375 -6.65625 C 11.984375 -7.113281 11.175781 -7.488281 10.0625 -7.78125 L 7.859375 -8.359375 C 6.085938 -8.816406 4.828125 -9.265625 4.078125 -9.703125 C 3.335938 -10.140625 2.753906 -10.671875 2.328125 -11.296875 C 1.910156 -11.929688 1.703125 -12.703125 1.703125 -13.609375 C 1.703125 -15.296875 2.300781 -16.582031 3.5 -17.46875 C 4.707031 -18.351562 6.460938 -18.796875 8.765625 -18.796875 C 10.804688 -18.796875 12.425781 -18.4375 13.625 -17.71875 C 14.820312 -17 15.582031 -15.847656 15.90625 -14.265625 L 13.140625 -13.921875 C 12.960938 -14.742188 12.5 -15.375 11.75 -15.8125 C 11.007812 -16.25 10.015625 -16.46875 8.765625 -16.46875 C 7.367188 -16.46875 6.34375 -16.253906 5.6875 -15.828125 C 5.03125 -15.410156 4.703125 -14.773438 4.703125 -13.921875 C 4.703125 -13.398438 4.835938 -12.96875 5.109375 -12.625 C 5.378906 -12.28125 5.78125 -11.988281 6.3125 -11.75 C 6.851562 -11.507812 7.984375 -11.179688 9.703125 -10.765625 C 11.328125 -10.347656 12.5 -9.960938 13.21875 -9.609375 C 13.9375 -9.265625 14.503906 -8.878906 14.921875 -8.453125 C 15.335938 -8.035156 15.660156 -7.550781 15.890625 -7 C 16.117188 -6.445312 16.234375 -5.816406 16.234375 -5.109375 Z M 16.234375 -5.109375 "/></g></g></g><g fill="#ffffff" fill-opacity="1"><g transform="translate(800.037616, 240.033703)"><g><path d="M 17.984375 -9.265625 C 17.984375 -6.023438 17.269531 -3.613281 15.84375 -2.03125 C 14.425781 -0.445312 12.363281 0.34375 9.65625 0.34375 C 6.957031 0.34375 4.914062 -0.476562 3.53125 -2.125 C 2.15625 -3.769531 1.46875 -6.148438 1.46875 -9.265625 C 1.46875 -15.648438 4.226562 -18.84375 9.75 -18.84375 C 12.570312 -18.84375 14.648438 -18.066406 15.984375 -16.515625 C 17.316406 -14.960938 17.984375 -12.546875 17.984375 -9.265625 Z M 14.765625 -9.265625 C 14.765625 -11.828125 14.382812 -13.6875 13.625 -14.84375 C 12.863281 -16 11.59375 -16.578125 9.8125 -16.578125 C 8.007812 -16.578125 6.707031 -15.984375 5.90625 -14.796875 C 5.101562 -13.617188 4.703125 -11.773438 4.703125 -9.265625 C 4.703125 -6.828125 5.097656 -4.992188 5.890625 -3.765625 C 6.679688 -2.546875 7.925781 -1.9375 9.625 -1.9375 C 11.46875 -1.9375 12.785156 -2.523438 13.578125 -3.703125 C 14.367188 -4.890625 14.765625 -6.742188 14.765625 -9.265625 Z M 14.765625 -9.265625 "/></g></g></g><g fill="#ffffff" fill-opacity="1"><g transform="translate(819.492115, 240.033703)"><g><path d="M 2.421875 0 L 2.421875 -14.203125 C 2.421875 -15.492188 2.390625 -16.925781 2.328125 -18.5 L 5.234375 -18.5 C 5.316406 -16.40625 5.359375 -15.148438 5.359375 -14.734375 L 5.4375 -14.734375 C 5.925781 -16.316406 6.488281 -17.394531 7.125 -17.96875 C 7.757812 -18.550781 8.660156 -18.84375 9.828125 -18.84375 C 10.234375 -18.84375 10.644531 -18.785156 11.0625 -18.671875 L 11.0625 -15.859375 C 10.65625 -15.972656 10.109375 -16.03125 9.421875 -16.03125 C 8.148438 -16.03125 7.175781 -15.476562 6.5 -14.375 C 5.832031 -13.269531 5.5 -11.691406 5.5 -9.640625 L 5.5 0 Z M 2.421875 0 "/></g></g></g><g fill="#ffffff" fill-opacity="1"><g transform="translate(831.140902, 240.033703)"><g><path d="M 3.265625 7.265625 C 2.421875 7.265625 1.710938 7.203125 1.140625 7.078125 L 1.140625 4.765625 C 1.578125 4.835938 2.054688 4.875 2.578125 4.875 C 4.492188 4.875 6.007812 3.46875 7.125 0.65625 L 7.40625 -0.078125 L 0.078125 -18.5 L 3.359375 -18.5 L 7.265625 -8.28125 C 7.316406 -8.125 7.378906 -7.929688 7.453125 -7.703125 C 7.535156 -7.484375 7.789062 -6.738281 8.21875 -5.46875 C 8.65625 -4.207031 8.894531 -3.503906 8.9375 -3.359375 L 10.125 -6.71875 L 14.171875 -18.5 L 17.421875 -18.5 L 10.3125 0 C 9.550781 1.96875 8.835938 3.429688 8.171875 4.390625 C 7.515625 5.359375 6.785156 6.078125 5.984375 6.546875 C 5.179688 7.023438 4.273438 7.265625 3.265625 7.265625 Z M 3.265625 7.265625 "/></g></g></g><g fill="#ffffff" fill-opacity="1"><g transform="translate(848.631162, 240.033703)"><g/></g></g><g fill="#ffffff" fill-opacity="1"><g transform="translate(858.349871, 240.033703)"><g><path d="M 1.765625 -12.15625 C 1.765625 -16.070312 2.8125 -19.097656 4.90625 -21.234375 C 7 -23.378906 9.941406 -24.453125 13.734375 -24.453125 C 16.398438 -24.453125 18.5625 -24 20.21875 -23.09375 C 21.882812 -22.195312 23.164062 -20.757812 24.0625 -18.78125 L 20.953125 -17.859375 C 20.273438 -19.222656 19.332031 -20.21875 18.125 -20.84375 C 16.925781 -21.476562 15.4375 -21.796875 13.65625 -21.796875 C 10.875 -21.796875 8.75 -20.953125 7.28125 -19.265625 C 5.8125 -17.585938 5.078125 -15.21875 5.078125 -12.15625 C 5.078125 -9.113281 5.851562 -6.710938 7.40625 -4.953125 C 8.96875 -3.191406 11.128906 -2.3125 13.890625 -2.3125 C 15.460938 -2.3125 16.925781 -2.550781 18.28125 -3.03125 C 19.644531 -3.507812 20.75 -4.160156 21.59375 -4.984375 L 21.59375 -9.328125 L 14.40625 -9.328125 L 14.40625 -12.0625 L 24.59375 -12.0625 L 24.59375 -3.75 C 23.320312 -2.445312 21.757812 -1.4375 19.90625 -0.71875 C 18.0625 -0.0078125 16.054688 0.34375 13.890625 0.34375 C 11.367188 0.34375 9.195312 -0.15625 7.375 -1.15625 C 5.550781 -2.164062 4.160156 -3.613281 3.203125 -5.5 C 2.242188 -7.382812 1.765625 -9.601562 1.765625 -12.15625 Z M 1.765625 -12.15625 "/></g></g></g><g fill="#ffffff" fill-opacity="1"><g transform="translate(885.558841, 240.033703)"><g><path d="M 2.421875 0 L 2.421875 -14.203125 C 2.421875 -15.492188 2.390625 -16.925781 2.328125 -18.5 L 5.234375 -18.5 C 5.316406 -16.40625 5.359375 -15.148438 5.359375 -14.734375 L 5.4375 -14.734375 C 5.925781 -16.316406 6.488281 -17.394531 7.125 -17.96875 C 7.757812 -18.550781 8.660156 -18.84375 9.828125 -18.84375 C 10.234375 -18.84375 10.644531 -18.785156 11.0625 -18.671875 L 11.0625 -15.859375 C 10.65625 -15.972656 10.109375 -16.03125 9.421875 -16.03125 C 8.148438 -16.03125 7.175781 -15.476562 6.5 -14.375 C 5.832031 -13.269531 5.5 -11.691406 5.5 -9.640625 L 5.5 0 Z M 2.421875 0 "/></g></g></g><g fill="#ffffff" fill-opacity="1"><g transform="translate(897.207628, 240.033703)"><g><path d="M 17.984375 -9.265625 C 17.984375 -6.023438 17.269531 -3.613281 15.84375 -2.03125 C 14.425781 -0.445312 12.363281 0.34375 9.65625 0.34375 C 6.957031 0.34375 4.914062 -0.476562 3.53125 -2.125 C 2.15625 -3.769531 1.46875 -6.148438 1.46875 -9.265625 C 1.46875 -15.648438 4.226562 -18.84375 9.75 -18.84375 C 12.570312 -18.84375 14.648438 -18.066406 15.984375 -16.515625 C 17.316406 -14.960938 17.984375 -12.546875 17.984375 -9.265625 Z M 14.765625 -9.265625 C 14.765625 -11.828125 14.382812 -13.6875 13.625 -14.84375 C 12.863281 -16 11.59375 -16.578125 9.8125 -16.578125 C 8.007812 -16.578125 6.707031 -15.984375 5.90625 -14.796875 C 5.101562 -13.617188 4.703125 -11.773438 4.703125 -9.265625 C 4.703125 -6.828125 5.097656 -4.992188 5.890625 -3.765625 C 6.679688 -2.546875 7.925781 -1.9375 9.625 -1.9375 C 11.46875 -1.9375 12.785156 -2.523438 13.578125 -3.703125 C 14.367188 -4.890625 14.765625 -6.742188 14.765625 -9.265625 Z M 14.765625 -9.265625 "/></g></g></g><g fill="#ffffff" fill-opacity="1"><g transform="translate(916.662127, 240.033703)"><g><path d="M 5.359375 -18.5 L 5.359375 -6.78125 C 5.359375 -5.550781 5.476562 -4.597656 5.71875 -3.921875 C 5.957031 -3.253906 6.335938 -2.769531 6.859375 -2.46875 C 7.390625 -2.175781 8.160156 -2.03125 9.171875 -2.03125 C 10.648438 -2.03125 11.816406 -2.535156 12.671875 -3.546875 C 13.523438 -4.566406 13.953125 -5.976562 13.953125 -7.78125 L 13.953125 -18.5 L 17.03125 -18.5 L 17.03125 -3.953125 C 17.03125 -1.796875 17.066406 -0.476562 17.140625 0 L 14.234375 0 C 14.222656 -0.0507812 14.207031 -0.203125 14.1875 -0.453125 C 14.175781 -0.710938 14.160156 -1.003906 14.140625 -1.328125 C 14.128906 -1.648438 14.113281 -2.265625 14.09375 -3.171875 L 14.046875 -3.171875 C 13.335938 -1.890625 12.519531 -0.984375 11.59375 -0.453125 C 10.664062 0.078125 9.507812 0.34375 8.125 0.34375 C 6.101562 0.34375 4.617188 -0.160156 3.671875 -1.171875 C 2.734375 -2.179688 2.265625 -3.847656 2.265625 -6.171875 L 2.265625 -18.5 Z M 5.359375 -18.5 "/></g></g></g><g fill="#ffffff" fill-opacity="1"><g transform="translate(936.116637, 240.033703)"><g><path d="M 17.984375 -9.34375 C 17.984375 -2.882812 15.71875 0.34375 11.1875 0.34375 C 8.34375 0.34375 6.429688 -0.726562 5.453125 -2.875 L 5.359375 -2.875 C 5.410156 -2.78125 5.4375 -1.8125 5.4375 0.03125 L 5.4375 7.265625 L 2.359375 7.265625 L 2.359375 -14.734375 C 2.359375 -16.628906 2.320312 -17.882812 2.25 -18.5 L 5.234375 -18.5 C 5.242188 -18.457031 5.257812 -18.296875 5.28125 -18.015625 C 5.300781 -17.734375 5.320312 -17.300781 5.34375 -16.71875 C 5.375 -16.144531 5.390625 -15.75 5.390625 -15.53125 L 5.46875 -15.53125 C 6.007812 -16.664062 6.726562 -17.5 7.625 -18.03125 C 8.53125 -18.5625 9.71875 -18.828125 11.1875 -18.828125 C 13.46875 -18.828125 15.171875 -18.0625 16.296875 -16.53125 C 17.421875 -15.007812 17.984375 -12.613281 17.984375 -9.34375 Z M 14.765625 -9.265625 C 14.765625 -11.847656 14.414062 -13.691406 13.71875 -14.796875 C 13.019531 -15.898438 11.914062 -16.453125 10.40625 -16.453125 C 9.1875 -16.453125 8.234375 -16.195312 7.546875 -15.6875 C 6.859375 -15.175781 6.332031 -14.375 5.96875 -13.28125 C 5.613281 -12.195312 5.4375 -10.78125 5.4375 -9.03125 C 5.4375 -6.601562 5.820312 -4.8125 6.59375 -3.65625 C 7.363281 -2.507812 8.625 -1.9375 10.375 -1.9375 C 11.894531 -1.9375 13.003906 -2.492188 13.703125 -3.609375 C 14.410156 -4.734375 14.765625 -6.617188 14.765625 -9.265625 Z M 14.765625 -9.265625 "/></g></g></g><g clip-path="url(#79075bb0ca)"><g clip-path="url(#1b9078d48e)"><g clip-path="url(#9d1f87c016)"><path fill="#ffffff" d="M 667 101.253906 C 663.359375 104.390625 660.273438 108.019531 657.691406 112.082031 C 652.75 119.863281 649.761719 128.375 648.269531 137.46875 C 646.179688 150.234375 646.984375 162.980469 648.105469 175.722656 C 648.953125 185.324219 650.242188 194.882812 649.921875 204.585938 C 649.574219 214.976562 648.707031 225.28125 645.484375 235.234375 C 640.742188 249.890625 632.613281 261.886719 618.910156 269.332031 C 617.59375 270.046875 616.203125 270.621094 614.820312 271.191406 C 614.460938 271.339844 614.003906 271.238281 613.59375 271.25 C 613.558594 271.097656 613.527344 270.945312 613.496094 270.792969 C 613.917969 270.542969 614.324219 270.261719 614.761719 270.050781 C 625.808594 264.722656 633.195312 255.839844 638.222656 244.742188 C 643.523438 233.039062 644.753906 220.597656 644.421875 207.96875 C 644.097656 195.578125 643.472656 183.199219 643.050781 170.8125 C 642.765625 162.476562 642.933594 154.128906 644.039062 145.84375 C 645.816406 132.527344 649.769531 120.011719 658.34375 109.429688 C 660.847656 106.335938 663.796875 103.621094 666.542969 100.730469 C 666.695312 100.90625 666.847656 101.082031 667 101.253906 Z M 667 101.253906 " fill-opacity="1" fill-rule="nonzero"/></g></g></g><g clip-path="url(#6e5af7bd77)"><g clip-path="url(#fa3c1ff195)"><g clip-path="url(#862a387060)"><path fill="#ffffff" d="M 678.875 99.390625 C 675.703125 103.003906 673.148438 107.019531 671.160156 111.40625 C 667.347656 119.796875 665.566406 128.640625 665.355469 137.855469 C 665.054688 150.789062 667.621094 163.296875 670.503906 175.761719 C 672.675781 185.152344 675.28125 194.433594 676.3125 204.089844 C 677.410156 214.429688 677.984375 224.757812 676.175781 235.058594 C 673.511719 250.230469 667.128906 263.238281 654.59375 272.519531 C 653.390625 273.410156 652.09375 274.167969 650.800781 274.925781 C 650.46875 275.121094 650 275.085938 649.59375 275.15625 C 649.542969 275.007812 649.488281 274.863281 649.4375 274.714844 C 649.820312 274.410156 650.183594 274.074219 650.585938 273.804688 C 660.785156 266.992188 666.867188 257.171875 670.304688 245.484375 C 673.925781 233.15625 673.417969 220.667969 671.335938 208.207031 C 669.292969 195.980469 666.953125 183.808594 664.816406 171.597656 C 663.375 163.382812 662.382812 155.097656 662.328125 146.734375 C 662.238281 133.304688 664.414062 120.359375 671.433594 108.6875 C 673.484375 105.277344 676.027344 102.175781 678.347656 98.933594 C 678.523438 99.085938 678.699219 99.238281 678.875 99.390625 Z M 678.875 99.390625 " fill-opacity="1" fill-rule="nonzero"/></g></g></g></svg>